<svg xmlns="http://www.w3.org/2000/svg" width="375" viewBox="0 0 375 375" height="375" version="1.0"><defs><clipPath id="a"><path d="M 109 231.945312 L 266 231.945312 L 266 275 L 109 275 Z M 109 231.945312"/></clipPath><clipPath id="b"><path d="M 201 84 L 276 84 L 276 230 L 201 230 Z M 201 84"/></clipPath><clipPath id="c"><path d="M 261.964844 231.9375 L 190.582031 91.492188 L 230.28125 71.3125 L 301.664062 211.761719 Z M 261.964844 231.9375"/></clipPath><clipPath id="d"><path d="M 261.964844 231.9375 L 190.582031 91.492188 L 230.28125 71.3125 L 301.664062 211.761719 Z M 261.964844 231.9375"/></clipPath><clipPath id="e"><path d="M 261.964844 231.9375 L 190.582031 91.492188 L 230.28125 71.3125 L 301.664062 211.761719 Z M 261.964844 231.9375"/></clipPath><clipPath id="f"><path d="M 269 200 L 270 200 L 270 202 L 269 202 Z M 269 200"/></clipPath><clipPath id="g"><path d="M 261.964844 231.9375 L 190.582031 91.492188 L 230.28125 71.3125 L 301.664062 211.761719 Z M 261.964844 231.9375"/></clipPath><clipPath id="h"><path d="M 261.964844 231.9375 L 190.582031 91.492188 L 230.28125 71.3125 L 301.664062 211.761719 Z M 261.964844 231.9375"/></clipPath><clipPath id="i"><path d="M 261.964844 231.9375 L 190.582031 91.492188 L 230.28125 71.3125 L 301.664062 211.761719 Z M 261.964844 231.9375"/></clipPath><clipPath id="j"><path d="M 84 94 L 189 94 L 189 222 L 84 222 Z M 84 94"/></clipPath><clipPath id="k"><path d="M 190.621094 96.503906 L 107.589844 230.394531 L 69.742188 206.925781 L 152.773438 73.035156 Z M 190.621094 96.503906"/></clipPath><clipPath id="l"><path d="M 190.621094 96.503906 L 107.589844 230.394531 L 69.742188 206.925781 L 152.773438 73.035156 Z M 190.621094 96.503906"/></clipPath><clipPath id="m"><path d="M 190.621094 96.503906 L 107.589844 230.394531 L 69.742188 206.925781 L 152.773438 73.035156 Z M 190.621094 96.503906"/></clipPath><clipPath id="n"><path d="M 160 106 L 161 106 L 161 107 L 160 107 Z M 160 106"/></clipPath><clipPath id="o"><path d="M 190.621094 96.503906 L 107.589844 230.394531 L 69.742188 206.925781 L 152.773438 73.035156 Z M 190.621094 96.503906"/></clipPath><clipPath id="p"><path d="M 190.621094 96.503906 L 107.589844 230.394531 L 69.742188 206.925781 L 152.773438 73.035156 Z M 190.621094 96.503906"/></clipPath><clipPath id="q"><path d="M 190.621094 96.503906 L 107.589844 230.394531 L 69.742188 206.925781 L 152.773438 73.035156 Z M 190.621094 96.503906"/></clipPath><clipPath id="r"><path d="M 164.214844 131.84375 L 210.664062 131.84375 L 210.664062 242.9375 L 164.214844 242.9375 Z M 164.214844 131.84375"/></clipPath></defs><path fill="#262222" d="M 187.5 45.277344 C 108.953125 45.277344 45.277344 108.953125 45.277344 187.5 C 45.277344 266.046875 108.953125 329.722656 187.5 329.722656 C 266.046875 329.722656 329.722656 266.046875 329.722656 187.5 C 329.722656 108.953125 266.046875 45.277344 187.5 45.277344"/><g clip-path="url(#a)"><path fill="#FFF" d="M 111.28125 233.238281 C 111.199219 233.351562 111.1875 233.472656 111.238281 233.601562 C 110.925781 233.964844 110.199219 233.683594 110.078125 234.347656 C 109.015625 235.40625 109.417969 236.484375 110.050781 237.554688 C 111.824219 240.542969 114.042969 243.179688 116.429688 245.683594 C 124.980469 254.644531 135.007812 261.402344 146.335938 266.453125 C 166.109375 275.269531 186.515625 276.492188 207.441406 272.183594 C 217.140625 270.1875 226.308594 266.53125 235.308594 262.453125 C 240.597656 260.054688 245.726562 257.347656 250.921875 254.761719 C 251.070312 254.585938 251.210938 254.410156 251.355469 254.234375 C 251.613281 254.222656 251.898438 254.136719 252.105469 254.230469 C 252.105469 254.230469 252.105469 254.230469 252.113281 254.234375 C 252.277344 254.3125 252.164062 254.542969 251.980469 254.636719 C 250.96875 256.679688 249.5625 258.441406 248.066406 260.128906 C 247.039062 261.285156 246.128906 262.480469 245.59375 263.941406 C 243.363281 266.410156 243.289062 269.054688 245.269531 271.355469 C 251.460938 268.96875 255.234375 264.058594 258.664062 258.753906 C 259.941406 256.78125 261.347656 254.898438 262.722656 252.996094 C 266.023438 248.445312 265.289062 248.917969 263.464844 244.722656 C 263.054688 243.78125 262.4375 242.953125 261.738281 242.195312 C 261.480469 241.914062 261.21875 241.679688 260.816406 241.679688 C 260.289062 240.636719 259.3125 240.625 258.355469 240.660156 C 255.511719 240.765625 252.679688 240.902344 249.839844 241.03125 C 249.242188 240.707031 248.625 240.804688 248.007812 240.933594 C 247.421875 240.582031 246.800781 240.695312 246.179688 240.773438 C 245.808594 240.460938 245.339844 240.578125 244.914062 240.519531 C 239.148438 239.707031 233.554688 238.257812 228.222656 235.859375 C 227.820312 235.679688 227.40625 235.535156 226.996094 235.371094 C 226.511719 235.171875 225.964844 234.945312 225.578125 235.398438 C 225.289062 235.742188 225.371094 236.367188 225.625 236.65625 C 226.757812 237.925781 226.925781 239.683594 227.914062 241.007812 C 228.351562 241.597656 228.992188 241.960938 229.652344 242.316406 C 234.71875 245.089844 240.136719 246.886719 245.753906 248.136719 C 246.257812 248.246094 246.789062 248.28125 247.25 248.492188 C 247.785156 248.738281 247.632812 249.191406 247.363281 249.59375 C 246.78125 249.523438 246.367188 249.757812 246.097656 250.265625 C 245.558594 250.308594 245.03125 250.386719 244.757812 250.953125 C 244.625 250.890625 244.535156 250.929688 244.496094 251.070312 C 243.976562 251.09375 243.496094 251.199219 243.21875 251.707031 C 242.867188 251.800781 242.5 251.847656 242.175781 252 C 238.585938 253.644531 235.027344 255.351562 231.425781 256.953125 C 228.152344 258.414062 224.839844 259.769531 221.542969 261.164062 C 220.628906 261.425781 219.707031 261.652344 218.808594 261.953125 C 210.046875 264.792969 201.074219 266.539062 191.867188 266.9375 C 188.578125 267.074219 185.285156 267.117188 181.996094 267.199219 C 181.371094 266.847656 180.730469 266.988281 180.082031 267.117188 C 179.496094 266.765625 178.882812 266.890625 178.265625 267.003906 C 177.726562 266.632812 177.144531 266.789062 176.566406 266.847656 C 176.234375 266.566406 175.867188 266.585938 175.488281 266.71875 C 175.359375 266.625 175.230469 266.621094 175.097656 266.707031 C 174.722656 266.40625 174.261719 266.507812 173.84375 266.441406 C 171.765625 266.082031 169.636719 266.101562 167.601562 265.488281 C 167.421875 265.65625 166.820312 265.746094 167.554688 266.054688 C 168.042969 266.265625 168.074219 266.410156 167.941406 266.53125 C 167.824219 266.636719 167.585938 266.726562 167.410156 266.8125 C 160.886719 265.484375 154.605469 263.382812 148.457031 260.867188 C 147.910156 260.578125 147.355469 260.292969 146.808594 260.007812 C 143.53125 258.296875 140.246094 256.585938 136.96875 254.882812 C 136.902344 254.742188 136.808594 254.648438 136.695312 254.597656 C 136.613281 254.5625 136.523438 254.542969 136.425781 254.542969 C 136.320312 254.316406 136.140625 254.210938 135.894531 254.21875 C 135.796875 253.984375 135.613281 253.878906 135.363281 253.890625 C 135.269531 253.652344 135.089844 253.546875 134.832031 253.558594 C 134.738281 253.320312 134.5625 253.203125 134.308594 253.21875 C 134.21875 252.972656 134.046875 252.863281 133.789062 252.878906 L 133.78125 252.875 C 133.703125 252.636719 133.527344 252.519531 133.277344 252.535156 L 133.265625 252.53125 C 133.105469 252.40625 132.9375 252.292969 132.761719 252.1875 L 132.746094 252.175781 C 132.664062 251.933594 132.5 251.820312 132.242188 251.832031 L 132.226562 251.820312 C 132.144531 251.578125 131.980469 251.460938 131.722656 251.472656 L 131.707031 251.460938 C 131.707031 251.460938 131.699219 251.457031 131.699219 251.457031 C 131.699219 251.457031 131.707031 251.460938 131.707031 251.460938 C 131.628906 251.21875 131.460938 251.101562 131.203125 251.113281 L 131.191406 251.105469 C 131.117188 250.859375 130.949219 250.746094 130.691406 250.757812 L 130.6875 250.75 C 130.605469 250.503906 130.433594 250.382812 130.179688 250.386719 C 128.683594 249.179688 127.199219 247.972656 125.703125 246.765625 C 124.730469 246.378906 124.058594 245.589844 123.308594 244.917969 C 123.335938 244.804688 123.390625 244.710938 123.453125 244.628906 C 123.550781 244.5 123.679688 244.410156 123.855469 244.359375 C 123.34375 243.792969 122.871094 243.1875 122.128906 242.886719 C 121.894531 242.816406 121.679688 242.71875 121.511719 242.53125 C 121.714844 242.648438 121.917969 242.773438 122.128906 242.886719 C 122 242.671875 121.855469 242.484375 121.582031 242.527344 C 121.511719 242.148438 121.269531 241.917969 120.921875 241.78125 C 120.878906 241.535156 120.753906 241.382812 120.488281 241.371094 C 120.386719 241.136719 120.246094 240.957031 119.972656 240.925781 C 119.9375 240.804688 119.871094 240.710938 119.742188 240.660156 C 119.339844 240.015625 118.828125 239.492188 118.1875 239.089844 C 117.875 238.652344 117.578125 238.203125 117.070312 237.960938 C 116.980469 237.613281 116.691406 237.425781 116.429688 237.222656 C 115.21875 235.492188 113.695312 234 112.765625 231.949219 C 112.261719 232.558594 111.410156 232.453125 111.28125 233.238281 Z M 244.570312 251.503906 C 244.566406 251.503906 244.566406 251.503906 244.558594 251.503906 C 244.558594 251.507812 244.566406 251.507812 244.566406 251.507812 C 244.558594 251.507812 244.554688 251.503906 244.554688 251.503906 C 244.554688 251.503906 244.558594 251.503906 244.558594 251.503906 C 244.558594 251.496094 244.558594 251.492188 244.554688 251.484375 C 244.566406 251.492188 244.566406 251.496094 244.570312 251.503906 Z M 130.597656 252.175781 C 130.632812 252.210938 130.667969 252.246094 130.703125 252.28125 C 130.691406 252.273438 130.679688 252.269531 130.667969 252.261719 C 130.632812 252.238281 130.597656 252.214844 130.5625 252.1875 C 130.570312 252.1875 130.582031 252.179688 130.597656 252.175781 Z M 136.933594 254.882812 C 136.933594 254.890625 136.925781 254.890625 136.925781 254.894531 C 136.914062 254.90625 136.910156 254.921875 136.898438 254.933594 L 136.855469 254.976562 L 136.925781 254.890625 C 136.925781 254.882812 136.921875 254.882812 136.921875 254.878906 C 136.921875 254.882812 136.925781 254.882812 136.933594 254.882812 Z M 130.382812 252.257812 C 130.441406 252.234375 130.5 252.210938 130.550781 252.191406 C 130.585938 252.214844 130.621094 252.238281 130.65625 252.261719 C 130.574219 252.222656 130.480469 252.214844 130.382812 252.257812 Z M 130.882812 252.429688 C 130.925781 252.460938 130.964844 252.488281 131 252.519531 C 131 252.523438 131.007812 252.523438 131.007812 252.53125 C 130.964844 252.496094 130.925781 252.460938 130.882812 252.429688 Z M 112.394531 237.074219 C 112.386719 237.074219 112.382812 237.070312 112.375 237.070312 C 112.375 237.070312 112.371094 237.0625 112.371094 237.0625 C 112.371094 237.058594 112.363281 237.050781 112.363281 237.046875 C 112.375 237.050781 112.382812 237.0625 112.394531 237.074219 Z M 112.9375 237.839844 C 112.9375 237.851562 112.9375 237.863281 112.949219 237.867188 C 112.949219 237.855469 112.9375 237.84375 112.9375 237.839844 Z M 121.132812 242.492188 C 121.089844 242.507812 121.050781 242.53125 121.007812 242.566406 C 121.003906 242.539062 120.996094 242.507812 120.992188 242.480469 C 121.039062 242.484375 121.085938 242.484375 121.132812 242.492188 Z M 120.085938 241.203125 C 120.023438 241.15625 119.976562 241.085938 119.949219 240.996094 C 119.949219 240.996094 119.949219 240.996094 119.953125 240.996094 C 119.988281 241.078125 120.027344 241.148438 120.085938 241.203125 Z M 120.085938 241.203125"/></g><path fill="#FFF" d="M 132.726562 252.175781 C 132.894531 252.292969 133.066406 252.402344 133.230469 252.519531 C 133.148438 252.273438 132.976562 252.164062 132.726562 252.175781 Z M 132.726562 252.175781"/><g clip-path="url(#b)"><g clip-path="url(#c)"><g clip-path="url(#d)"><g clip-path="url(#e)"><path fill="#FFF" d="M 261.984375 229.121094 C 262.121094 229.140625 262.234375 229.097656 262.324219 228.992188 C 262.792969 229.109375 262.867188 229.878906 263.519531 229.6875 C 264.941406 230.15625 265.71875 229.308594 266.386719 228.261719 C 268.25 225.328125 269.59375 222.152344 270.746094 218.890625 C 274.855469 207.207031 276.339844 195.207031 275.707031 182.820312 C 274.613281 161.199219 266.453125 142.453125 253.132812 125.753906 C 246.957031 118.007812 239.546875 111.492188 231.832031 105.316406 C 227.296875 101.6875 222.558594 98.34375 217.898438 94.882812 C 217.675781 94.832031 217.457031 94.785156 217.234375 94.734375 C 217.109375 94.511719 216.898438 94.296875 216.886719 94.066406 C 216.886719 94.066406 216.886719 94.066406 216.890625 94.058594 C 216.882812 93.878906 217.144531 93.871094 217.3125 93.996094 C 219.589844 93.96875 221.796875 94.425781 223.980469 94.996094 C 225.476562 95.386719 226.953125 95.65625 228.5 95.476562 C 231.710938 96.34375 234.101562 95.210938 235.253906 92.402344 C 230.320312 87.964844 224.234375 86.828125 217.949219 86.171875 C 215.613281 85.929688 213.300781 85.527344 210.980469 85.160156 C 205.425781 84.28125 206.179688 84.722656 203.265625 88.25 C 202.613281 89.042969 202.15625 89.96875 201.796875 90.933594 C 201.664062 91.292969 201.574219 91.632812 201.753906 91.988281 C 201.0625 92.929688 201.496094 93.808594 201.960938 94.648438 C 203.339844 97.132812 204.75 99.59375 206.152344 102.070312 C 206.128906 102.746094 206.5 103.253906 206.894531 103.746094 C 206.84375 104.425781 207.226562 104.933594 207.578125 105.445312 C 207.46875 105.921875 207.785156 106.285156 207.925781 106.691406 C 209.816406 112.199219 211.058594 117.84375 211.335938 123.683594 C 211.355469 124.125 211.414062 124.558594 211.453125 124.996094 C 211.496094 125.519531 211.542969 126.109375 212.121094 126.246094 C 212.5625 126.351562 213.082031 125.996094 213.21875 125.636719 C 213.839844 124.050781 215.332031 123.105469 216.066406 121.625 C 216.390625 120.96875 216.425781 120.234375 216.441406 119.484375 C 216.617188 113.710938 215.765625 108.0625 214.335938 102.492188 C 214.207031 101.992188 213.996094 101.503906 213.976562 101 C 213.949219 100.410156 214.425781 100.335938 214.90625 100.394531 C 215.105469 100.945312 215.503906 101.210938 216.078125 101.21875 C 216.359375 101.683594 216.671875 102.113281 217.300781 102.101562 C 217.304688 102.25 217.378906 102.3125 217.523438 102.285156 C 217.777344 102.734375 218.089844 103.113281 218.667969 103.132812 C 218.910156 103.402344 219.117188 103.710938 219.402344 103.933594 C 222.492188 106.382812 225.625 108.785156 228.691406 111.269531 C 231.472656 113.527344 234.179688 115.867188 236.917969 118.171875 C 237.566406 118.871094 238.1875 119.585938 238.859375 120.253906 C 245.363281 126.777344 250.984375 133.980469 255.511719 142.011719 C 257.125 144.882812 258.652344 147.796875 260.214844 150.691406 C 260.1875 151.40625 260.601562 151.914062 261.011719 152.433594 C 260.964844 153.117188 261.351562 153.609375 261.734375 154.105469 C 261.644531 154.753906 262.050781 155.203125 262.363281 155.691406 C 262.265625 156.113281 262.449219 156.433594 262.738281 156.710938 C 262.714844 156.867188 262.765625 156.984375 262.90625 157.066406 C 262.804688 157.535156 263.105469 157.898438 263.234375 158.304688 C 263.859375 160.316406 264.839844 162.207031 265.214844 164.300781 C 265.445312 164.382812 265.796875 164.878906 265.738281 164.085938 C 265.707031 163.554688 265.820312 163.460938 265.992188 163.523438 C 266.140625 163.582031 266.324219 163.753906 266.484375 163.871094 C 268.25 170.289062 269.222656 176.839844 269.765625 183.460938 C 269.761719 184.078125 269.757812 184.703125 269.75 185.320312 C 269.710938 189.015625 269.671875 192.71875 269.640625 196.414062 C 269.542969 196.535156 269.503906 196.660156 269.507812 196.789062 C 269.515625 196.875 269.539062 196.960938 269.582031 197.050781 C 269.429688 197.246094 269.417969 197.457031 269.53125 197.671875 C 269.371094 197.867188 269.359375 198.074219 269.480469 198.292969 C 269.3125 198.484375 269.300781 198.695312 269.425781 198.917969 C 269.253906 199.109375 269.230469 199.316406 269.363281 199.539062 C 269.183594 199.726562 269.164062 199.933594 269.296875 200.15625 L 269.292969 200.164062 C 269.117188 200.34375 269.089844 200.554688 269.222656 200.769531 L 269.222656 200.78125 C 269.183594 200.976562 269.15625 201.179688 269.140625 201.386719 L 269.136719 201.40625 C 268.960938 201.585938 268.933594 201.785156 269.058594 202.007812 L 269.054688 202.03125 C 268.878906 202.210938 268.851562 202.410156 268.976562 202.632812 L 268.972656 202.652344 C 268.972656 202.652344 268.972656 202.660156 268.972656 202.660156 C 268.972656 202.660156 268.972656 202.652344 268.972656 202.652344 C 268.789062 202.832031 268.761719 203.035156 268.890625 203.261719 L 268.890625 203.273438 C 268.707031 203.453125 268.679688 203.65625 268.804688 203.878906 L 268.800781 203.886719 C 268.621094 204.070312 268.585938 204.277344 268.710938 204.503906 C 268.308594 206.382812 267.90625 208.253906 267.503906 210.132812 C 267.601562 211.175781 267.203125 212.132812 266.945312 213.105469 C 266.828125 213.132812 266.722656 213.128906 266.621094 213.109375 C 266.460938 213.078125 266.324219 213.003906 266.199219 212.871094 C 265.925781 213.585938 265.601562 214.28125 265.671875 215.078125 C 265.714844 215.316406 265.722656 215.554688 265.632812 215.789062 C 265.644531 215.554688 265.660156 215.316406 265.671875 215.078125 C 265.535156 215.289062 265.433594 215.503906 265.597656 215.730469 C 265.289062 215.964844 265.195312 216.28125 265.230469 216.65625 C 265.027344 216.804688 264.953125 216.984375 265.058594 217.226562 C 264.898438 217.425781 264.800781 217.632812 264.898438 217.890625 C 264.804688 217.976562 264.753906 218.074219 264.761719 218.214844 C 264.375 218.863281 264.136719 219.558594 264.070312 220.3125 C 263.820312 220.789062 263.554688 221.257812 263.570312 221.816406 C 263.300781 222.058594 263.261719 222.398438 263.199219 222.726562 C 262.210938 224.589844 261.566406 226.625 260.160156 228.378906 C 260.933594 228.554688 261.222656 229.363281 261.984375 229.121094 Z M 217.871094 102.019531 C 217.875 102.027344 217.875 102.027344 217.878906 102.03125 C 217.882812 102.027344 217.878906 102.023438 217.878906 102.023438 C 217.882812 102.027344 217.882812 102.035156 217.882812 102.035156 C 217.882812 102.035156 217.878906 102.03125 217.878906 102.03125 C 217.871094 102.035156 217.867188 102.035156 217.867188 102.042969 C 217.863281 102.03125 217.871094 102.027344 217.871094 102.019531 Z M 270.109375 203.320312 C 270.125 203.273438 270.140625 203.226562 270.15625 203.179688 C 270.15625 203.191406 270.15625 203.203125 270.15625 203.21875 C 270.152344 203.257812 270.148438 203.300781 270.136719 203.34375 C 270.136719 203.339844 270.125 203.332031 270.109375 203.320312 Z M 269.65625 196.445312 C 269.660156 196.441406 269.664062 196.449219 269.667969 196.445312 C 269.683594 196.449219 269.703125 196.449219 269.71875 196.453125 L 269.773438 196.46875 L 269.664062 196.449219 C 269.65625 196.449219 269.660156 196.457031 269.65625 196.457031 C 269.660156 196.457031 269.65625 196.449219 269.65625 196.445312 Z M 270.28125 203.472656 C 270.234375 203.433594 270.1875 203.390625 270.148438 203.351562 C 270.152344 203.3125 270.15625 203.269531 270.164062 203.226562 C 270.164062 203.320312 270.199219 203.40625 270.28125 203.472656 Z M 270.210938 202.949219 C 270.21875 202.898438 270.226562 202.847656 270.234375 202.804688 C 270.242188 202.800781 270.238281 202.796875 270.242188 202.792969 C 270.230469 202.847656 270.21875 202.898438 270.210938 202.949219 Z M 264.898438 226.390625 C 264.902344 226.394531 264.898438 226.402344 264.902344 226.40625 C 264.902344 226.40625 264.898438 226.414062 264.898438 226.414062 C 264.894531 226.417969 264.890625 226.425781 264.886719 226.429688 C 264.886719 226.414062 264.894531 226.40625 264.898438 226.390625 Z M 265.335938 225.558594 C 265.34375 225.554688 265.355469 225.546875 265.355469 225.535156 C 265.34375 225.539062 265.339844 225.554688 265.335938 225.558594 Z M 265.769531 216.144531 C 265.800781 216.175781 265.839844 216.199219 265.890625 216.21875 C 265.867188 216.238281 265.84375 216.257812 265.820312 216.277344 C 265.804688 216.230469 265.785156 216.191406 265.769531 216.144531 Z M 265.089844 217.660156 C 265.078125 217.738281 265.039062 217.8125 264.972656 217.878906 C 264.972656 217.878906 264.972656 217.878906 264.96875 217.875 C 265.027344 217.804688 265.070312 217.738281 265.089844 217.660156 Z M 265.089844 217.660156"/></g></g></g></g><g clip-path="url(#f)"><g clip-path="url(#g)"><g clip-path="url(#h)"><g clip-path="url(#i)"><path fill="#FFF" d="M 269.148438 201.421875 C 269.175781 201.21875 269.195312 201.015625 269.226562 200.816406 C 269.042969 201.003906 269.023438 201.203125 269.148438 201.421875 Z M 269.148438 201.421875"/></g></g></g></g><g clip-path="url(#j)"><g clip-path="url(#k)"><g clip-path="url(#l)"><g clip-path="url(#m)"><path fill="#FFF" d="M 188.203125 97.949219 C 188.148438 97.824219 188.050781 97.746094 187.914062 97.726562 C 187.773438 97.265625 188.394531 96.800781 187.890625 96.34375 C 187.554688 94.886719 186.425781 94.660156 185.183594 94.632812 C 181.710938 94.5625 178.296875 95.0625 174.910156 95.769531 C 162.789062 98.3125 151.761719 103.273438 141.5 110.238281 C 123.585938 122.394531 111.792969 139.097656 104.425781 159.148438 C 101.011719 168.441406 99.285156 178.160156 98.007812 187.960938 C 97.257812 193.71875 96.859375 199.503906 96.316406 205.285156 C 96.386719 205.5 96.464844 205.710938 96.535156 205.925781 C 96.410156 206.152344 96.332031 206.441406 96.144531 206.570312 C 96.144531 206.570312 96.144531 206.570312 96.136719 206.570312 C 95.984375 206.671875 95.84375 206.453125 95.863281 206.246094 C 94.660156 204.3125 93.902344 202.1875 93.257812 200.023438 C 92.816406 198.542969 92.28125 197.140625 91.324219 195.914062 C 90.398438 192.71875 88.191406 191.261719 85.191406 191.734375 C 83.960938 198.25 86.140625 204.046875 88.84375 209.757812 C 89.847656 211.882812 90.703125 214.066406 91.59375 216.242188 C 93.722656 221.445312 93.710938 220.570312 98.238281 221.230469 C 99.253906 221.378906 100.28125 221.292969 101.296875 221.097656 C 101.667969 221.027344 102.007812 220.925781 102.21875 220.585938 C 103.382812 220.6875 103.910156 219.863281 104.382812 219.03125 C 105.792969 216.5625 107.167969 214.078125 108.554688 211.597656 C 109.144531 211.261719 109.386719 210.683594 109.605469 210.09375 C 110.210938 209.78125 110.445312 209.191406 110.699219 208.625 C 111.164062 208.472656 111.3125 208.015625 111.585938 207.683594 C 115.316406 203.207031 119.492188 199.21875 124.34375 195.953125 C 124.707031 195.703125 125.050781 195.429688 125.402344 195.167969 C 125.828125 194.863281 126.308594 194.515625 126.125 193.949219 C 125.988281 193.519531 125.414062 193.261719 125.035156 193.328125 C 123.359375 193.617188 121.773438 192.835938 120.128906 192.976562 C 119.398438 193.035156 118.753906 193.390625 118.101562 193.761719 C 113.074219 196.609375 108.691406 200.269531 104.667969 204.382812 C 104.3125 204.75 104 205.183594 103.582031 205.464844 C 103.089844 205.792969 102.78125 205.421875 102.582031 204.980469 C 102.949219 204.523438 102.96875 204.046875 102.679688 203.550781 C 102.929688 203.070312 103.136719 202.582031 102.800781 202.050781 C 102.925781 201.96875 102.9375 201.875 102.839844 201.765625 C 103.09375 201.3125 103.253906 200.847656 102.972656 200.34375 C 103.078125 199.996094 103.230469 199.660156 103.273438 199.304688 C 103.765625 195.386719 104.191406 191.464844 104.726562 187.554688 C 105.210938 184.003906 105.808594 180.476562 106.359375 176.941406 C 106.617188 176.023438 106.910156 175.121094 107.128906 174.199219 C 109.332031 165.257812 112.578125 156.714844 117.09375 148.675781 C 118.707031 145.808594 120.40625 142.988281 122.070312 140.152344 C 122.699219 139.804688 122.917969 139.1875 123.148438 138.570312 C 123.757812 138.253906 123.976562 137.667969 124.203125 137.082031 C 124.804688 136.820312 124.976562 136.242188 125.230469 135.722656 C 125.644531 135.585938 125.824219 135.265625 125.910156 134.871094 C 126.054688 134.8125 126.128906 134.707031 126.125 134.546875 C 126.578125 134.386719 126.734375 133.941406 127.015625 133.621094 C 128.410156 132.042969 129.519531 130.226562 131.113281 128.820312 C 131.0625 128.574219 131.304688 128.019531 130.65625 128.480469 C 130.21875 128.785156 130.078125 128.734375 130.046875 128.554688 C 130.019531 128.402344 130.070312 128.152344 130.085938 127.957031 C 134.65625 123.117188 139.753906 118.886719 145.128906 114.988281 C 145.660156 114.671875 146.195312 114.351562 146.730469 114.035156 C 149.910156 112.152344 153.09375 110.261719 156.269531 108.375 C 156.421875 108.394531 156.550781 108.363281 156.65625 108.292969 C 156.730469 108.242188 156.792969 108.175781 156.84375 108.089844 C 157.09375 108.121094 157.277344 108.023438 157.402344 107.8125 C 157.652344 107.851562 157.835938 107.753906 157.957031 107.535156 C 158.210938 107.582031 158.394531 107.484375 158.519531 107.257812 C 158.773438 107.304688 158.964844 107.21875 159.085938 106.992188 C 159.339844 107.046875 159.527344 106.957031 159.648438 106.726562 L 159.65625 106.726562 C 159.902344 106.78125 160.09375 106.695312 160.210938 106.472656 L 160.222656 106.464844 C 160.410156 106.398438 160.597656 106.316406 160.777344 106.222656 L 160.796875 106.210938 C 161.042969 106.269531 161.230469 106.191406 161.355469 105.96875 L 161.375 105.960938 C 161.621094 106.015625 161.804688 105.9375 161.929688 105.714844 L 161.949219 105.707031 C 161.949219 105.707031 161.957031 105.703125 161.957031 105.703125 C 161.957031 105.703125 161.949219 105.707031 161.949219 105.707031 C 162.199219 105.769531 162.386719 105.6875 162.511719 105.464844 L 162.523438 105.457031 C 162.769531 105.523438 162.960938 105.441406 163.085938 105.214844 L 163.09375 105.214844 C 163.34375 105.273438 163.539062 105.195312 163.667969 104.972656 C 165.480469 104.339844 167.292969 103.714844 169.105469 103.082031 C 169.945312 102.457031 170.96875 102.300781 171.9375 102.015625 C 172.019531 102.101562 172.074219 102.195312 172.109375 102.292969 C 172.164062 102.445312 172.171875 102.601562 172.125 102.777344 C 172.875 102.640625 173.640625 102.558594 174.285156 102.085938 C 174.46875 101.921875 174.664062 101.792969 174.914062 101.746094 C 174.707031 101.859375 174.496094 101.96875 174.285156 102.085938 C 174.535156 102.089844 174.769531 102.066406 174.878906 101.808594 C 175.238281 101.949219 175.558594 101.867188 175.863281 101.644531 C 176.09375 101.738281 176.289062 101.710938 176.4375 101.492188 C 176.691406 101.527344 176.917969 101.503906 177.089844 101.285156 C 177.210938 101.320312 177.324219 101.3125 177.4375 101.234375 C 178.195312 101.230469 178.910156 101.070312 179.589844 100.738281 C 180.125 100.703125 180.664062 100.6875 181.136719 100.382812 C 181.484375 100.488281 181.792969 100.34375 182.105469 100.230469 C 184.210938 100.109375 186.285156 99.601562 188.515625 99.894531 C 188.265625 99.144531 188.804688 98.472656 188.203125 97.949219 Z M 102.429688 201.601562 C 102.433594 201.597656 102.433594 201.597656 102.4375 201.589844 C 102.433594 201.589844 102.429688 201.59375 102.429688 201.59375 C 102.433594 201.589844 102.441406 201.585938 102.441406 201.585938 C 102.441406 201.585938 102.4375 201.589844 102.4375 201.589844 C 102.441406 201.59375 102.449219 201.597656 102.457031 201.597656 C 102.445312 201.601562 102.441406 201.601562 102.429688 201.601562 Z M 161.929688 104.386719 C 161.878906 104.398438 161.832031 104.410156 161.785156 104.421875 C 161.796875 104.414062 161.804688 104.410156 161.816406 104.402344 C 161.855469 104.382812 161.894531 104.367188 161.9375 104.351562 C 161.933594 104.359375 161.933594 104.371094 161.929688 104.386719 Z M 156.289062 108.34375 C 156.285156 108.339844 156.285156 108.335938 156.28125 108.332031 C 156.277344 108.316406 156.265625 108.304688 156.261719 108.285156 L 156.25 108.230469 L 156.285156 108.335938 C 156.292969 108.339844 156.292969 108.335938 156.300781 108.335938 C 156.292969 108.335938 156.292969 108.339844 156.289062 108.34375 Z M 161.972656 104.160156 C 161.960938 104.222656 161.953125 104.285156 161.9375 104.339844 C 161.898438 104.355469 161.863281 104.375 161.824219 104.390625 C 161.902344 104.34375 161.957031 104.269531 161.972656 104.160156 Z M 161.558594 104.496094 C 161.511719 104.515625 161.46875 104.535156 161.425781 104.550781 C 161.417969 104.546875 161.417969 104.550781 161.410156 104.546875 C 161.460938 104.53125 161.511719 104.515625 161.558594 104.496094 Z M 184.355469 96.875 C 184.359375 96.871094 184.367188 96.867188 184.371094 96.863281 C 184.371094 96.863281 184.378906 96.863281 184.378906 96.863281 C 184.382812 96.867188 184.390625 96.863281 184.394531 96.867188 C 184.382812 96.875 184.371094 96.871094 184.355469 96.875 Z M 183.417969 96.933594 C 183.410156 96.929688 183.398438 96.921875 183.390625 96.929688 C 183.398438 96.933594 183.414062 96.929688 183.417969 96.933594 Z M 175.148438 101.445312 C 175.152344 101.402344 175.15625 101.355469 175.148438 101.300781 C 175.175781 101.3125 175.203125 101.324219 175.230469 101.332031 C 175.203125 101.371094 175.175781 101.410156 175.148438 101.445312 Z M 176.792969 101.238281 C 176.867188 101.210938 176.953125 101.207031 177.042969 101.226562 C 177.042969 101.226562 177.042969 101.226562 177.039062 101.234375 C 176.949219 101.21875 176.871094 101.21875 176.792969 101.238281 Z M 176.792969 101.238281"/></g></g></g></g><g clip-path="url(#n)"><g clip-path="url(#o)"><g clip-path="url(#p)"><g clip-path="url(#q)"><path fill="#FFF" d="M 160.808594 106.199219 C 160.617188 106.28125 160.433594 106.367188 160.25 106.441406 C 160.5 106.503906 160.683594 106.417969 160.808594 106.199219 Z M 160.808594 106.199219"/></g></g></g></g><g clip-path="url(#r)"><path fill="#A5BF83" d="M 164.214844 155.3125 L 164.214844 172.808594 L 187.4375 149.480469 L 210.664062 172.808594 L 210.664062 155.3125 L 187.4375 131.980469 Z M 164.214844 190.308594 L 164.214844 207.804688 L 187.4375 184.472656 L 210.664062 207.804688 L 210.664062 190.308594 L 187.4375 166.976562 Z M 164.214844 225.304688 L 164.214844 242.800781 L 187.4375 219.46875 L 210.664062 242.800781 L 210.664062 225.304688 L 187.4375 201.972656 L 164.214844 225.304688"/></g></svg>