<svg xmlns="http://www.w3.org/2000/svg" width="375" viewBox="0 0 375 375" height="375" version="1.0"><defs><clipPath id="a"><path d="M 109 256.839844 L 266 256.839844 L 266 300 L 109 300 Z M 109 256.839844"/></clipPath><clipPath id="b"><path d="M 201 109 L 276 109 L 276 255 L 201 255 Z M 201 109"/></clipPath><clipPath id="c"><path d="M 261.964844 256.835938 L 190.582031 116.386719 L 230.28125 96.210938 L 301.664062 236.65625 Z M 261.964844 256.835938"/></clipPath><clipPath id="d"><path d="M 261.964844 256.835938 L 190.582031 116.386719 L 230.28125 96.210938 L 301.664062 236.65625 Z M 261.964844 256.835938"/></clipPath><clipPath id="e"><path d="M 261.964844 256.835938 L 190.582031 116.386719 L 230.28125 96.210938 L 301.664062 236.65625 Z M 261.964844 256.835938"/></clipPath><clipPath id="f"><path d="M 269 225 L 270 225 L 270 227 L 269 227 Z M 269 225"/></clipPath><clipPath id="g"><path d="M 261.964844 256.835938 L 190.582031 116.386719 L 230.28125 96.210938 L 301.664062 236.65625 Z M 261.964844 256.835938"/></clipPath><clipPath id="h"><path d="M 261.964844 256.835938 L 190.582031 116.386719 L 230.28125 96.210938 L 301.664062 236.65625 Z M 261.964844 256.835938"/></clipPath><clipPath id="i"><path d="M 261.964844 256.835938 L 190.582031 116.386719 L 230.28125 96.210938 L 301.664062 236.65625 Z M 261.964844 256.835938"/></clipPath><clipPath id="j"><path d="M 84 119 L 189 119 L 189 247 L 84 247 Z M 84 119"/></clipPath><clipPath id="k"><path d="M 190.621094 121.402344 L 107.589844 255.292969 L 69.742188 231.820312 L 152.773438 97.929688 Z M 190.621094 121.402344"/></clipPath><clipPath id="l"><path d="M 190.621094 121.402344 L 107.589844 255.292969 L 69.742188 231.820312 L 152.773438 97.929688 Z M 190.621094 121.402344"/></clipPath><clipPath id="m"><path d="M 190.621094 121.402344 L 107.589844 255.292969 L 69.742188 231.820312 L 152.773438 97.929688 Z M 190.621094 121.402344"/></clipPath><clipPath id="n"><path d="M 160 131 L 161 131 L 161 132 L 160 132 Z M 160 131"/></clipPath><clipPath id="o"><path d="M 190.621094 121.402344 L 107.589844 255.292969 L 69.742188 231.820312 L 152.773438 97.929688 Z M 190.621094 121.402344"/></clipPath><clipPath id="p"><path d="M 190.621094 121.402344 L 107.589844 255.292969 L 69.742188 231.820312 L 152.773438 97.929688 Z M 190.621094 121.402344"/></clipPath><clipPath id="q"><path d="M 190.621094 121.402344 L 107.589844 255.292969 L 69.742188 231.820312 L 152.773438 97.929688 Z M 190.621094 121.402344"/></clipPath><clipPath id="r"><path d="M 164.214844 156.738281 L 210.664062 156.738281 L 210.664062 267.835938 L 164.214844 267.835938 Z M 164.214844 156.738281"/></clipPath></defs><path fill="#262222" d="M 187.5 70.171875 C 108.953125 70.171875 45.277344 133.847656 45.277344 212.394531 C 45.277344 290.945312 108.953125 354.621094 187.5 354.621094 C 266.046875 354.621094 329.722656 290.945312 329.722656 212.394531 C 329.722656 133.847656 266.046875 70.171875 187.5 70.171875"/><g clip-path="url(#a)"><path fill="#FFF" d="M 111.28125 258.136719 C 111.199219 258.246094 111.1875 258.371094 111.238281 258.5 C 110.925781 258.859375 110.199219 258.578125 110.078125 259.246094 C 109.015625 260.300781 109.417969 261.382812 110.050781 262.449219 C 111.824219 265.4375 114.042969 268.078125 116.429688 270.582031 C 124.980469 279.539062 135.007812 286.296875 146.335938 291.347656 C 166.109375 300.167969 186.515625 301.386719 207.441406 297.078125 C 217.140625 295.082031 226.308594 291.429688 235.308594 287.347656 C 240.597656 284.949219 245.726562 282.242188 250.921875 279.65625 C 251.070312 279.480469 251.210938 279.304688 251.355469 279.132812 C 251.613281 279.121094 251.898438 279.03125 252.105469 279.125 C 252.105469 279.125 252.105469 279.125 252.113281 279.132812 C 252.277344 279.207031 252.164062 279.441406 251.980469 279.535156 C 250.96875 281.578125 249.5625 283.339844 248.066406 285.027344 C 247.039062 286.183594 246.128906 287.378906 245.59375 288.835938 C 243.363281 291.304688 243.289062 293.949219 245.269531 296.25 C 251.460938 293.863281 255.234375 288.953125 258.664062 283.648438 C 259.941406 281.675781 261.347656 279.796875 262.722656 277.894531 C 266.023438 273.339844 265.289062 273.8125 263.464844 269.617188 C 263.054688 268.675781 262.4375 267.847656 261.738281 267.089844 C 261.480469 266.808594 261.21875 266.578125 260.816406 266.578125 C 260.289062 265.53125 259.3125 265.519531 258.355469 265.554688 C 255.511719 265.660156 252.679688 265.800781 249.839844 265.929688 C 249.242188 265.601562 248.625 265.699219 248.007812 265.828125 C 247.421875 265.480469 246.800781 265.589844 246.179688 265.671875 C 245.808594 265.355469 245.339844 265.472656 244.914062 265.414062 C 239.148438 264.601562 233.554688 263.15625 228.222656 260.757812 C 227.820312 260.574219 227.40625 260.429688 226.996094 260.265625 C 226.511719 260.066406 225.964844 259.839844 225.578125 260.296875 C 225.289062 260.640625 225.371094 261.265625 225.625 261.550781 C 226.757812 262.824219 226.925781 264.578125 227.914062 265.90625 C 228.351562 266.496094 228.992188 266.855469 229.652344 267.210938 C 234.71875 269.984375 240.136719 271.78125 245.753906 273.03125 C 246.257812 273.140625 246.789062 273.175781 247.25 273.386719 C 247.785156 273.632812 247.632812 274.089844 247.363281 274.492188 C 246.78125 274.421875 246.367188 274.652344 246.097656 275.160156 C 245.558594 275.203125 245.03125 275.285156 244.757812 275.851562 C 244.625 275.785156 244.535156 275.828125 244.496094 275.96875 C 243.976562 275.992188 243.496094 276.097656 243.21875 276.605469 C 242.867188 276.695312 242.5 276.742188 242.175781 276.894531 C 238.585938 278.542969 235.027344 280.246094 231.425781 281.851562 C 228.152344 283.308594 224.839844 284.664062 221.542969 286.058594 C 220.628906 286.320312 219.707031 286.550781 218.808594 286.847656 C 210.046875 289.691406 201.074219 291.433594 191.867188 291.832031 C 188.578125 291.972656 185.285156 292.011719 181.996094 292.09375 C 181.371094 291.746094 180.730469 291.882812 180.082031 292.011719 C 179.496094 291.664062 178.882812 291.785156 178.265625 291.902344 C 177.726562 291.527344 177.144531 291.6875 176.566406 291.746094 C 176.234375 291.464844 175.867188 291.480469 175.488281 291.617188 C 175.359375 291.523438 175.230469 291.515625 175.097656 291.605469 C 174.722656 291.300781 174.261719 291.40625 173.84375 291.335938 C 171.765625 290.980469 169.636719 290.996094 167.601562 290.382812 C 167.421875 290.554688 166.820312 290.640625 167.554688 290.949219 C 168.042969 291.160156 168.074219 291.304688 167.941406 291.429688 C 167.824219 291.535156 167.585938 291.621094 167.410156 291.710938 C 160.886719 290.378906 154.605469 288.277344 148.457031 285.761719 C 147.910156 285.476562 147.355469 285.191406 146.808594 284.902344 C 143.53125 283.195312 140.246094 281.484375 136.96875 279.777344 C 136.902344 279.640625 136.808594 279.546875 136.695312 279.492188 C 136.613281 279.457031 136.523438 279.441406 136.425781 279.441406 C 136.320312 279.210938 136.140625 279.109375 135.894531 279.113281 C 135.796875 278.878906 135.613281 278.773438 135.363281 278.785156 C 135.269531 278.546875 135.089844 278.441406 134.832031 278.453125 C 134.738281 278.214844 134.5625 278.097656 134.308594 278.117188 C 134.21875 277.871094 134.046875 277.757812 133.789062 277.777344 L 133.78125 277.769531 C 133.703125 277.53125 133.527344 277.414062 133.277344 277.433594 L 133.265625 277.425781 C 133.105469 277.304688 132.9375 277.1875 132.761719 277.082031 L 132.746094 277.070312 C 132.664062 276.832031 132.5 276.714844 132.242188 276.726562 L 132.226562 276.714844 C 132.144531 276.476562 131.980469 276.359375 131.722656 276.371094 L 131.707031 276.359375 C 131.707031 276.359375 131.699219 276.351562 131.699219 276.351562 C 131.699219 276.351562 131.707031 276.359375 131.707031 276.359375 C 131.628906 276.113281 131.460938 275.996094 131.203125 276.007812 L 131.191406 276.003906 C 131.117188 275.757812 130.949219 275.640625 130.691406 275.652344 L 130.6875 275.648438 C 130.605469 275.402344 130.433594 275.277344 130.179688 275.285156 C 128.683594 274.078125 127.199219 272.867188 125.703125 271.660156 C 124.730469 271.273438 124.058594 270.488281 123.308594 269.816406 C 123.335938 269.699219 123.390625 269.605469 123.453125 269.523438 C 123.550781 269.394531 123.679688 269.308594 123.855469 269.253906 C 123.34375 268.6875 122.871094 268.082031 122.128906 267.785156 C 121.894531 267.714844 121.679688 267.613281 121.511719 267.429688 C 121.714844 267.546875 121.917969 267.667969 122.128906 267.785156 C 122 267.570312 121.855469 267.382812 121.582031 267.421875 C 121.511719 267.042969 121.269531 266.816406 120.921875 266.675781 C 120.878906 266.429688 120.753906 266.277344 120.488281 266.265625 C 120.386719 266.035156 120.246094 265.851562 119.972656 265.824219 C 119.9375 265.699219 119.871094 265.605469 119.742188 265.554688 C 119.339844 264.914062 118.828125 264.386719 118.1875 263.984375 C 117.875 263.546875 117.578125 263.097656 117.070312 262.859375 C 116.980469 262.507812 116.691406 262.320312 116.429688 262.117188 C 115.21875 260.390625 113.695312 258.894531 112.765625 256.847656 C 112.261719 257.453125 111.410156 257.347656 111.28125 258.136719 Z M 244.570312 276.398438 C 244.566406 276.398438 244.566406 276.398438 244.558594 276.398438 C 244.558594 276.40625 244.566406 276.40625 244.566406 276.40625 C 244.558594 276.40625 244.554688 276.398438 244.554688 276.398438 C 244.554688 276.398438 244.558594 276.398438 244.558594 276.398438 C 244.558594 276.394531 244.558594 276.386719 244.554688 276.382812 C 244.566406 276.386719 244.566406 276.394531 244.570312 276.398438 Z M 130.597656 277.070312 C 130.632812 277.105469 130.667969 277.140625 130.703125 277.175781 C 130.691406 277.171875 130.679688 277.164062 130.667969 277.160156 C 130.632812 277.136719 130.597656 277.113281 130.5625 277.082031 C 130.570312 277.082031 130.582031 277.078125 130.597656 277.070312 Z M 136.933594 279.777344 C 136.933594 279.785156 136.925781 279.785156 136.925781 279.789062 C 136.914062 279.800781 136.910156 279.820312 136.898438 279.832031 L 136.855469 279.871094 L 136.925781 279.785156 C 136.925781 279.777344 136.921875 279.777344 136.921875 279.773438 C 136.921875 279.777344 136.925781 279.777344 136.933594 279.777344 Z M 130.382812 277.152344 C 130.441406 277.128906 130.5 277.105469 130.550781 277.089844 C 130.585938 277.113281 130.621094 277.136719 130.65625 277.160156 C 130.574219 277.117188 130.480469 277.113281 130.382812 277.152344 Z M 130.882812 277.328125 C 130.925781 277.355469 130.964844 277.386719 131 277.414062 C 131 277.421875 131.007812 277.421875 131.007812 277.425781 C 130.964844 277.390625 130.925781 277.355469 130.882812 277.328125 Z M 112.394531 261.972656 C 112.386719 261.972656 112.382812 261.964844 112.375 261.964844 C 112.375 261.964844 112.371094 261.960938 112.371094 261.960938 C 112.371094 261.953125 112.363281 261.949219 112.363281 261.941406 C 112.375 261.949219 112.382812 261.960938 112.394531 261.972656 Z M 112.9375 262.734375 C 112.9375 262.746094 112.9375 262.757812 112.949219 262.765625 C 112.949219 262.753906 112.9375 262.742188 112.9375 262.734375 Z M 121.132812 267.386719 C 121.089844 267.40625 121.050781 267.429688 121.007812 267.464844 C 121.003906 267.433594 120.996094 267.40625 120.992188 267.375 C 121.039062 267.382812 121.085938 267.382812 121.132812 267.386719 Z M 120.085938 266.097656 C 120.023438 266.050781 119.976562 265.980469 119.949219 265.894531 C 119.949219 265.894531 119.949219 265.894531 119.953125 265.894531 C 119.988281 265.976562 120.027344 266.046875 120.085938 266.097656 Z M 120.085938 266.097656"/></g><path fill="#FFF" d="M 132.726562 277.070312 C 132.894531 277.1875 133.066406 277.296875 133.230469 277.414062 C 133.148438 277.171875 132.976562 277.058594 132.726562 277.070312 Z M 132.726562 277.070312"/><g clip-path="url(#b)"><g clip-path="url(#c)"><g clip-path="url(#d)"><g clip-path="url(#e)"><path fill="#FFF" d="M 261.984375 254.015625 C 262.121094 254.039062 262.234375 253.992188 262.324219 253.886719 C 262.792969 254.003906 262.867188 254.777344 263.519531 254.585938 C 264.941406 255.050781 265.71875 254.203125 266.386719 253.160156 C 268.25 250.222656 269.59375 247.046875 270.746094 243.785156 C 274.855469 232.105469 276.339844 220.101562 275.707031 207.71875 C 274.613281 186.09375 266.453125 167.347656 253.132812 150.648438 C 246.957031 142.90625 239.546875 136.386719 231.832031 130.210938 C 227.296875 126.582031 222.558594 123.238281 217.898438 119.777344 C 217.675781 119.726562 217.457031 119.683594 217.234375 119.632812 C 217.109375 119.40625 216.898438 119.191406 216.886719 118.964844 C 216.886719 118.964844 216.886719 118.964844 216.890625 118.957031 C 216.882812 118.777344 217.144531 118.769531 217.3125 118.890625 C 219.589844 118.867188 221.796875 119.320312 223.980469 119.894531 C 225.476562 120.285156 226.953125 120.554688 228.5 120.371094 C 231.710938 121.238281 234.101562 120.109375 235.253906 117.296875 C 230.320312 112.863281 224.234375 111.722656 217.949219 111.070312 C 215.613281 110.824219 213.300781 110.421875 210.980469 110.058594 C 205.425781 109.175781 206.179688 109.617188 203.265625 113.148438 C 202.613281 113.9375 202.15625 114.863281 201.796875 115.832031 C 201.664062 116.1875 201.574219 116.527344 201.753906 116.886719 C 201.0625 117.828125 201.496094 118.707031 201.960938 119.542969 C 203.339844 122.027344 204.75 124.492188 206.152344 126.964844 C 206.128906 127.644531 206.5 128.148438 206.894531 128.644531 C 206.84375 129.320312 207.226562 129.828125 207.578125 130.34375 C 207.46875 130.816406 207.785156 131.179688 207.925781 131.585938 C 209.816406 137.097656 211.058594 142.738281 211.335938 148.578125 C 211.355469 149.019531 211.414062 149.453125 211.453125 149.894531 C 211.496094 150.414062 211.542969 151.007812 212.121094 151.144531 C 212.5625 151.246094 213.082031 150.890625 213.21875 150.53125 C 213.839844 148.949219 215.332031 148 216.066406 146.523438 C 216.390625 145.863281 216.425781 145.128906 216.441406 144.378906 C 216.617188 138.605469 215.765625 132.960938 214.335938 127.386719 C 214.207031 126.890625 213.996094 126.398438 213.976562 125.894531 C 213.949219 125.304688 214.425781 125.234375 214.90625 125.289062 C 215.105469 125.84375 215.503906 126.105469 216.078125 126.113281 C 216.359375 126.578125 216.671875 127.011719 217.300781 127 C 217.304688 127.148438 217.378906 127.207031 217.523438 127.179688 C 217.777344 127.632812 218.089844 128.011719 218.667969 128.03125 C 218.910156 128.300781 219.117188 128.605469 219.402344 128.828125 C 222.492188 131.28125 225.625 133.679688 228.691406 136.167969 C 231.472656 138.421875 234.179688 140.761719 236.917969 143.066406 C 237.566406 143.765625 238.1875 144.484375 238.859375 145.148438 C 245.363281 151.671875 250.984375 158.878906 255.511719 166.910156 C 257.125 169.777344 258.652344 172.691406 260.214844 175.589844 C 260.1875 176.304688 260.601562 176.8125 261.011719 177.332031 C 260.964844 178.015625 261.351562 178.503906 261.734375 179.003906 C 261.644531 179.652344 262.050781 180.097656 262.363281 180.585938 C 262.265625 181.011719 262.449219 181.332031 262.738281 181.609375 C 262.714844 181.765625 262.765625 181.882812 262.90625 181.960938 C 262.804688 182.433594 263.105469 182.796875 263.234375 183.199219 C 263.859375 185.214844 264.839844 187.101562 265.214844 189.195312 C 265.445312 189.28125 265.796875 189.777344 265.738281 188.980469 C 265.707031 188.449219 265.820312 188.355469 265.992188 188.421875 C 266.140625 188.476562 266.324219 188.652344 266.484375 188.765625 C 268.25 195.183594 269.222656 201.734375 269.765625 208.355469 C 269.761719 208.972656 269.757812 209.597656 269.75 210.214844 C 269.710938 213.914062 269.671875 217.617188 269.640625 221.308594 C 269.542969 221.429688 269.503906 221.554688 269.507812 221.683594 C 269.515625 221.773438 269.539062 221.859375 269.582031 221.945312 C 269.429688 222.144531 269.417969 222.351562 269.53125 222.570312 C 269.371094 222.761719 269.359375 222.972656 269.480469 223.191406 C 269.3125 223.382812 269.300781 223.589844 269.425781 223.8125 C 269.253906 224.003906 269.230469 224.214844 269.363281 224.433594 C 269.183594 224.625 269.164062 224.832031 269.296875 225.050781 L 269.292969 225.058594 C 269.117188 225.238281 269.089844 225.449219 269.222656 225.664062 L 269.222656 225.679688 C 269.183594 225.875 269.15625 226.078125 269.140625 226.28125 L 269.136719 226.300781 C 268.960938 226.484375 268.933594 226.679688 269.058594 226.90625 L 269.054688 226.925781 C 268.878906 227.105469 268.851562 227.304688 268.976562 227.527344 L 268.972656 227.550781 C 268.972656 227.550781 268.972656 227.558594 268.972656 227.558594 C 268.972656 227.558594 268.972656 227.550781 268.972656 227.550781 C 268.789062 227.730469 268.761719 227.933594 268.890625 228.15625 L 268.890625 228.167969 C 268.707031 228.347656 268.679688 228.550781 268.804688 228.773438 L 268.800781 228.78125 C 268.621094 228.964844 268.585938 229.171875 268.710938 229.398438 C 268.308594 231.277344 267.90625 233.152344 267.503906 235.03125 C 267.601562 236.074219 267.203125 237.027344 266.945312 238.003906 C 266.828125 238.027344 266.722656 238.023438 266.621094 238.003906 C 266.460938 237.972656 266.324219 237.898438 266.199219 237.765625 C 265.925781 238.480469 265.601562 239.175781 265.671875 239.972656 C 265.714844 240.210938 265.722656 240.449219 265.632812 240.683594 C 265.644531 240.449219 265.660156 240.214844 265.671875 239.972656 C 265.535156 240.183594 265.433594 240.398438 265.597656 240.625 C 265.289062 240.859375 265.195312 241.175781 265.230469 241.550781 C 265.027344 241.699219 264.953125 241.882812 265.058594 242.121094 C 264.898438 242.320312 264.800781 242.527344 264.898438 242.785156 C 264.804688 242.871094 264.753906 242.972656 264.761719 243.109375 C 264.375 243.757812 264.136719 244.457031 264.070312 245.210938 C 263.820312 245.683594 263.554688 246.152344 263.570312 246.714844 C 263.300781 246.953125 263.261719 247.292969 263.199219 247.621094 C 262.210938 249.484375 261.566406 251.519531 260.160156 253.273438 C 260.933594 253.453125 261.222656 254.257812 261.984375 254.015625 Z M 217.871094 126.917969 C 217.875 126.921875 217.875 126.921875 217.878906 126.925781 C 217.882812 126.925781 217.878906 126.917969 217.878906 126.917969 C 217.882812 126.925781 217.882812 126.933594 217.882812 126.933594 C 217.882812 126.933594 217.878906 126.925781 217.878906 126.925781 C 217.871094 126.929688 217.867188 126.933594 217.867188 126.941406 C 217.863281 126.925781 217.871094 126.925781 217.871094 126.917969 Z M 270.109375 228.214844 C 270.125 228.167969 270.140625 228.121094 270.15625 228.074219 C 270.15625 228.085938 270.15625 228.101562 270.15625 228.113281 C 270.152344 228.15625 270.148438 228.195312 270.136719 228.242188 C 270.136719 228.234375 270.125 228.226562 270.109375 228.214844 Z M 269.65625 221.339844 C 269.660156 221.339844 269.664062 221.34375 269.667969 221.339844 C 269.683594 221.347656 269.703125 221.34375 269.71875 221.347656 L 269.773438 221.367188 L 269.664062 221.34375 C 269.65625 221.347656 269.660156 221.351562 269.65625 221.355469 C 269.660156 221.351562 269.65625 221.347656 269.65625 221.339844 Z M 270.28125 228.371094 C 270.234375 228.328125 270.1875 228.289062 270.148438 228.25 C 270.152344 228.207031 270.15625 228.164062 270.164062 228.125 C 270.164062 228.214844 270.199219 228.300781 270.28125 228.371094 Z M 270.210938 227.84375 C 270.21875 227.792969 270.226562 227.746094 270.234375 227.699219 C 270.242188 227.699219 270.238281 227.691406 270.242188 227.691406 C 270.230469 227.742188 270.21875 227.792969 270.210938 227.84375 Z M 264.898438 251.285156 C 264.902344 251.289062 264.898438 251.296875 264.902344 251.304688 C 264.902344 251.304688 264.898438 251.3125 264.898438 251.3125 C 264.894531 251.3125 264.890625 251.320312 264.886719 251.324219 C 264.886719 251.3125 264.894531 251.300781 264.898438 251.285156 Z M 265.335938 250.457031 C 265.34375 250.449219 265.355469 250.445312 265.355469 250.429688 C 265.34375 250.4375 265.339844 250.453125 265.335938 250.457031 Z M 265.769531 241.042969 C 265.800781 241.070312 265.839844 241.097656 265.890625 241.117188 C 265.867188 241.136719 265.84375 241.152344 265.820312 241.171875 C 265.804688 241.128906 265.785156 241.085938 265.769531 241.042969 Z M 265.089844 242.558594 C 265.078125 242.636719 265.039062 242.707031 264.972656 242.773438 C 264.972656 242.773438 264.972656 242.773438 264.96875 242.769531 C 265.027344 242.699219 265.070312 242.632812 265.089844 242.558594 Z M 265.089844 242.558594"/></g></g></g></g><g clip-path="url(#f)"><g clip-path="url(#g)"><g clip-path="url(#h)"><g clip-path="url(#i)"><path fill="#FFF" d="M 269.148438 226.316406 C 269.175781 226.113281 269.195312 225.914062 269.226562 225.714844 C 269.042969 225.898438 269.023438 226.097656 269.148438 226.316406 Z M 269.148438 226.316406"/></g></g></g></g><g clip-path="url(#j)"><g clip-path="url(#k)"><g clip-path="url(#l)"><g clip-path="url(#m)"><path fill="#FFF" d="M 188.203125 122.847656 C 188.148438 122.71875 188.050781 122.644531 187.914062 122.621094 C 187.773438 122.164062 188.394531 121.695312 187.890625 121.242188 C 187.554688 119.78125 186.425781 119.554688 185.183594 119.527344 C 181.710938 119.457031 178.296875 119.957031 174.910156 120.664062 C 162.789062 123.210938 151.761719 128.167969 141.5 135.132812 C 123.585938 147.289062 111.792969 163.992188 104.425781 184.042969 C 101.011719 193.339844 99.285156 203.054688 98.007812 212.855469 C 97.257812 218.617188 96.859375 224.398438 96.316406 230.179688 C 96.386719 230.394531 96.464844 230.605469 96.535156 230.824219 C 96.410156 231.046875 96.332031 231.335938 96.144531 231.464844 C 96.144531 231.464844 96.144531 231.464844 96.136719 231.46875 C 95.984375 231.566406 95.84375 231.347656 95.863281 231.140625 C 94.660156 229.207031 93.902344 227.082031 93.257812 224.921875 C 92.816406 223.4375 92.28125 222.035156 91.324219 220.808594 C 90.398438 217.613281 88.191406 216.15625 85.191406 216.628906 C 83.960938 223.148438 86.140625 228.941406 88.84375 234.652344 C 89.847656 236.777344 90.703125 238.964844 91.59375 241.136719 C 93.722656 246.339844 93.710938 245.46875 98.238281 246.128906 C 99.253906 246.277344 100.28125 246.1875 101.296875 245.992188 C 101.667969 245.921875 102.007812 245.820312 102.21875 245.480469 C 103.382812 245.585938 103.910156 244.757812 104.382812 243.925781 C 105.792969 241.457031 107.167969 238.972656 108.554688 236.492188 C 109.144531 236.160156 109.386719 235.582031 109.605469 234.988281 C 110.210938 234.675781 110.445312 234.089844 110.699219 233.519531 C 111.164062 233.367188 111.3125 232.910156 111.585938 232.578125 C 115.316406 228.105469 119.492188 224.113281 124.34375 220.847656 C 124.707031 220.601562 125.050781 220.324219 125.402344 220.066406 C 125.828125 219.757812 126.308594 219.414062 126.125 218.84375 C 125.988281 218.414062 125.414062 218.15625 125.035156 218.222656 C 123.359375 218.515625 121.773438 217.730469 120.128906 217.871094 C 119.398438 217.933594 118.753906 218.289062 118.101562 218.660156 C 113.074219 221.507812 108.691406 225.164062 104.667969 229.277344 C 104.3125 229.648438 104 230.078125 103.582031 230.359375 C 103.089844 230.6875 102.78125 230.320312 102.582031 229.878906 C 102.949219 229.417969 102.96875 228.945312 102.679688 228.449219 C 102.929688 227.964844 103.136719 227.476562 102.800781 226.945312 C 102.925781 226.867188 102.9375 226.769531 102.839844 226.660156 C 103.09375 226.207031 103.253906 225.746094 102.972656 225.238281 C 103.078125 224.894531 103.230469 224.554688 103.273438 224.199219 C 103.765625 220.28125 104.191406 216.359375 104.726562 212.453125 C 105.210938 208.902344 105.808594 205.371094 106.359375 201.835938 C 106.617188 200.917969 106.910156 200.015625 107.128906 199.097656 C 109.332031 190.152344 112.578125 181.609375 117.09375 173.574219 C 118.707031 170.703125 120.40625 167.886719 122.070312 165.046875 C 122.699219 164.703125 122.917969 164.082031 123.148438 163.464844 C 123.757812 163.148438 123.976562 162.5625 124.203125 161.976562 C 124.804688 161.71875 124.976562 161.136719 125.230469 160.617188 C 125.644531 160.480469 125.824219 160.160156 125.910156 159.769531 C 126.054688 159.707031 126.128906 159.601562 126.125 159.441406 C 126.578125 159.285156 126.734375 158.835938 127.015625 158.515625 C 128.410156 156.941406 129.519531 155.121094 131.113281 153.714844 C 131.0625 153.472656 131.304688 152.914062 130.65625 153.375 C 130.21875 153.683594 130.078125 153.628906 130.046875 153.453125 C 130.019531 153.296875 130.070312 153.046875 130.085938 152.851562 C 134.65625 148.011719 139.753906 143.78125 145.128906 139.882812 C 145.660156 139.566406 146.195312 139.246094 146.730469 138.933594 C 149.910156 137.046875 153.09375 135.15625 156.269531 133.269531 C 156.421875 133.289062 156.550781 133.257812 156.65625 133.1875 C 156.730469 133.136719 156.792969 133.070312 156.84375 132.988281 C 157.09375 133.019531 157.277344 132.921875 157.402344 132.707031 C 157.652344 132.746094 157.835938 132.648438 157.957031 132.429688 C 158.210938 132.476562 158.394531 132.378906 158.519531 132.15625 C 158.773438 132.199219 158.964844 132.113281 159.085938 131.886719 C 159.339844 131.941406 159.527344 131.851562 159.648438 131.625 L 159.65625 131.621094 C 159.902344 131.679688 160.09375 131.589844 160.210938 131.371094 L 160.222656 131.363281 C 160.410156 131.292969 160.597656 131.210938 160.777344 131.117188 L 160.796875 131.109375 C 161.042969 131.164062 161.230469 131.089844 161.355469 130.863281 L 161.375 130.855469 C 161.621094 130.910156 161.804688 130.835938 161.929688 130.609375 L 161.949219 130.601562 C 161.949219 130.601562 161.957031 130.601562 161.957031 130.601562 C 161.957031 130.601562 161.949219 130.601562 161.949219 130.601562 C 162.199219 130.667969 162.386719 130.585938 162.511719 130.359375 L 162.523438 130.351562 C 162.769531 130.417969 162.960938 130.335938 163.085938 130.113281 L 163.09375 130.109375 C 163.34375 130.167969 163.539062 130.089844 163.667969 129.867188 C 165.480469 129.238281 167.292969 128.609375 169.105469 127.976562 C 169.945312 127.351562 170.96875 127.199219 171.9375 126.910156 C 172.019531 127 172.074219 127.09375 172.109375 127.191406 C 172.164062 127.339844 172.171875 127.496094 172.125 127.671875 C 172.875 127.535156 173.640625 127.453125 174.285156 126.980469 C 174.46875 126.820312 174.664062 126.6875 174.914062 126.644531 C 174.707031 126.753906 174.496094 126.863281 174.285156 126.980469 C 174.535156 126.984375 174.769531 126.960938 174.878906 126.707031 C 175.238281 126.847656 175.558594 126.761719 175.863281 126.539062 C 176.09375 126.632812 176.289062 126.605469 176.4375 126.386719 C 176.691406 126.421875 176.917969 126.398438 177.089844 126.179688 C 177.210938 126.214844 177.324219 126.210938 177.4375 126.128906 C 178.195312 126.125 178.910156 125.964844 179.589844 125.632812 C 180.125 125.601562 180.664062 125.585938 181.136719 125.28125 C 181.484375 125.386719 181.792969 125.242188 182.105469 125.125 C 184.210938 125.003906 186.285156 124.5 188.515625 124.789062 C 188.265625 124.039062 188.804688 123.371094 188.203125 122.847656 Z M 102.429688 226.496094 C 102.433594 226.492188 102.433594 226.492188 102.4375 226.488281 C 102.433594 226.484375 102.429688 226.488281 102.429688 226.488281 C 102.433594 226.484375 102.441406 226.484375 102.441406 226.484375 C 102.441406 226.484375 102.4375 226.488281 102.4375 226.488281 C 102.441406 226.492188 102.449219 226.492188 102.457031 226.492188 C 102.445312 226.5 102.441406 226.496094 102.429688 226.496094 Z M 161.929688 129.285156 C 161.878906 129.296875 161.832031 129.308594 161.785156 129.320312 C 161.796875 129.3125 161.804688 129.304688 161.816406 129.296875 C 161.855469 129.28125 161.894531 129.261719 161.9375 129.25 C 161.933594 129.253906 161.933594 129.265625 161.929688 129.285156 Z M 156.289062 133.242188 C 156.285156 133.238281 156.285156 133.234375 156.28125 133.230469 C 156.277344 133.214844 156.265625 133.199219 156.261719 133.183594 L 156.25 133.125 L 156.285156 133.234375 C 156.292969 133.234375 156.292969 133.230469 156.300781 133.234375 C 156.292969 133.230469 156.292969 133.234375 156.289062 133.242188 Z M 161.972656 129.058594 C 161.960938 129.121094 161.953125 129.183594 161.9375 129.234375 C 161.898438 129.253906 161.863281 129.269531 161.824219 129.289062 C 161.902344 129.238281 161.957031 129.164062 161.972656 129.058594 Z M 161.558594 129.390625 C 161.511719 129.410156 161.46875 129.429688 161.425781 129.445312 C 161.417969 129.441406 161.417969 129.445312 161.410156 129.445312 C 161.460938 129.429688 161.511719 129.410156 161.558594 129.390625 Z M 184.355469 121.773438 C 184.359375 121.765625 184.367188 121.765625 184.371094 121.761719 C 184.371094 121.761719 184.378906 121.757812 184.378906 121.757812 C 184.382812 121.761719 184.390625 121.757812 184.394531 121.761719 C 184.382812 121.769531 184.371094 121.769531 184.355469 121.773438 Z M 183.417969 121.828125 C 183.410156 121.824219 183.398438 121.816406 183.390625 121.824219 C 183.398438 121.832031 183.414062 121.828125 183.417969 121.828125 Z M 175.148438 126.34375 C 175.152344 126.300781 175.15625 126.25 175.148438 126.199219 C 175.175781 126.210938 175.203125 126.21875 175.230469 126.230469 C 175.203125 126.265625 175.175781 126.304688 175.148438 126.34375 Z M 176.792969 126.136719 C 176.867188 126.105469 176.953125 126.101562 177.042969 126.125 C 177.042969 126.125 177.042969 126.125 177.039062 126.128906 C 176.949219 126.117188 176.871094 126.113281 176.792969 126.136719 Z M 176.792969 126.136719"/></g></g></g></g><g clip-path="url(#n)"><g clip-path="url(#o)"><g clip-path="url(#p)"><g clip-path="url(#q)"><path fill="#FFF" d="M 160.808594 131.09375 C 160.617188 131.175781 160.433594 131.261719 160.25 131.339844 C 160.5 131.398438 160.683594 131.3125 160.808594 131.09375 Z M 160.808594 131.09375"/></g></g></g></g><g clip-path="url(#r)"><path fill="#A5BF83" d="M 164.214844 180.207031 L 164.214844 197.707031 L 187.4375 174.375 L 210.664062 197.707031 L 210.664062 180.207031 L 187.4375 156.878906 Z M 164.214844 215.203125 L 164.214844 232.699219 L 187.4375 209.371094 L 210.664062 232.699219 L 210.664062 215.203125 L 187.4375 191.871094 Z M 164.214844 250.199219 L 164.214844 267.695312 L 187.4375 244.367188 L 210.664062 267.695312 L 210.664062 250.199219 L 187.4375 226.867188 L 164.214844 250.199219"/></g><g><g><g><path d="M 13.039062 -7.738281 L 5.378906 -24.503906 C 4.800781 -25.785156 3.933594 -26.363281 2.855469 -26.363281 C 1.324219 -26.363281 -0.125 -24.792969 0.746094 -22.886719 L 10.636719 -1.367188 C 11.007812 -0.414062 11.835938 0 12.789062 0 C 13.78125 0 14.777344 -0.496094 15.148438 -1.28125 L 22.761719 -16.472656 L 30.460938 -1.28125 C 30.917969 -0.332031 31.664062 0 32.613281 0 C 33.566406 0 34.476562 -0.457031 34.890625 -1.367188 L 44.949219 -23.054688 C 45.859375 -25.039062 44.160156 -26.363281 42.714844 -26.363281 C 41.636719 -26.363281 40.769531 -25.703125 40.3125 -24.707031 L 32.574219 -7.738281 L 25.039062 -22.761719 C 24.585938 -23.589844 23.632812 -24.046875 22.722656 -24.046875 C 21.769531 -24.046875 20.941406 -23.589844 20.570312 -22.679688 Z M 13.039062 -7.738281" transform="translate(32.519 38.959)"/></g></g></g><g><g><g><path d="M 13.535156 -26.777344 C 12.457031 -26.777344 11.796875 -26.53125 11.382812 -25.621094 L -0.414062 -2.523438 C -1.160156 -0.910156 0.457031 0.414062 1.902344 0.414062 C 2.691406 0.414062 3.558594 0.0820312 3.972656 -0.785156 L 6.871094 -6.539062 L 20.199219 -6.539062 L 23.09375 -0.785156 C 23.507812 0 24.417969 0.414062 25.207031 0.414062 C 26.777344 0.414062 28.433594 -0.828125 27.359375 -2.648438 L 15.644531 -25.621094 C 15.230469 -26.445312 14.402344 -26.777344 13.535156 -26.777344 Z M 13.535156 -19.785156 L 18.167969 -10.554688 L 8.898438 -10.554688 Z M 13.535156 -19.785156" transform="translate(80.939 38.959)"/></g></g></g><g><g><g><path d="M 0.289062 -6.25 C 1.695312 -1.074219 8.277344 0.414062 12.582031 0.414062 C 17.753906 0.414062 25 -1.40625 25 -7.988281 C 25 -14.570312 18.789062 -14.816406 13.039062 -15.355469 C 8.980469 -15.644531 5.503906 -15.976562 5.503906 -18.667969 C 5.503906 -21.5625 9.976562 -22.351562 12.210938 -22.351562 C 14.734375 -22.351562 18.460938 -22.019531 19.453125 -19.453125 C 19.785156 -18.707031 20.652344 -18.292969 21.5625 -18.292969 C 22.96875 -18.292969 24.378906 -19.453125 23.921875 -20.984375 C 21.976562 -25.535156 16.472656 -26.777344 12.167969 -26.777344 C 6.996094 -26.777344 0.539062 -24.378906 0.539062 -18.707031 C 0.539062 -12.417969 6.953125 -11.628906 12.582031 -11.175781 C 16.265625 -10.886719 20.03125 -10.554688 20.03125 -7.945312 C 20.03125 -4.675781 15.480469 -3.933594 12.582031 -3.933594 C 9.808594 -3.933594 6 -4.550781 5.089844 -7.242188 C 4.882812 -8.320312 3.890625 -8.855469 2.8125 -8.855469 C 1.367188 -8.855469 -0.125 -7.863281 0.289062 -6.25 Z M 0.289062 -6.25" transform="translate(109.784 38.959)"/></g></g></g><g><g><g><path d="M 21.4375 -26.363281 L 1.28125 -26.363281 C -0.332031 -26.363281 -1.035156 -25.289062 -1.035156 -24.210938 C -1.035156 -23.175781 -0.332031 -22.101562 1.28125 -22.101562 L 8.941406 -22.101562 L 8.941406 -2.195312 C 8.941406 -0.703125 10.179688 0 11.339844 0 C 12.417969 0 13.78125 -0.703125 13.78125 -2.195312 L 13.742188 -22.101562 L 21.4375 -22.101562 C 23.011719 -22.101562 23.882812 -23.175781 23.882812 -24.210938 C 23.882812 -25.289062 23.011719 -26.363281 21.4375 -26.363281 Z M 21.4375 -26.363281" transform="translate(136.518 38.959)"/></g></g></g><g><g><g><path d="M 21.5625 -4.140625 L 7.117188 -4.140625 L 7.117188 -11.007812 L 20.820312 -11.007812 C 22.265625 -11.007812 22.96875 -12.003906 22.96875 -12.996094 C 22.96875 -14.03125 22.226562 -15.066406 20.820312 -15.066406 L 7.117188 -15.066406 L 7.117188 -22.308594 L 21.5625 -22.308594 C 22.96875 -22.308594 23.757812 -23.382812 23.757812 -24.378906 C 23.757812 -25.414062 23.054688 -26.363281 21.5625 -26.363281 L 5.132812 -26.363281 C 3.476562 -26.363281 2.402344 -25.246094 2.402344 -23.921875 L 2.402344 -2.484375 C 2.402344 -1.117188 3.476562 0 5.132812 0 L 21.5625 0 C 23.09375 0 23.839844 -0.992188 23.839844 -1.988281 C 23.839844 -3.019531 23.011719 -4.140625 21.5625 -4.140625 Z M 21.5625 -4.140625" transform="translate(160.894 38.959)"/></g></g></g><g><g><g><path d="M 31.921875 -5.839844 C 31.757812 -6.21875 31.976562 -6.058594 31.8125 -6.21875 C 31.484375 -6.65625 31.15625 -6.929688 30.777344 -7.148438 C 30.285156 -7.53125 30.722656 -7.421875 29.957031 -7.695312 C 29.191406 -7.964844 28.59375 -8.183594 27.71875 -8.402344 L 26.082031 -8.730469 L 26.355469 -9.550781 C 26.464844 -9.660156 26.519531 -9.820312 26.574219 -9.984375 C 26.738281 -10.421875 26.792969 -10.804688 27.011719 -11.242188 C 27.066406 -11.460938 27.175781 -11.730469 27.175781 -12.058594 C 27.445312 -12.496094 27.609375 -12.988281 27.773438 -13.53125 L 27.992188 -14.023438 L 28.757812 -16.804688 C 28.8125 -17.132812 28.921875 -17.460938 29.085938 -17.734375 C 29.140625 -18.117188 29.300781 -18.5 29.464844 -18.988281 C 29.628906 -19.589844 29.792969 -20.027344 30.011719 -20.789062 C 30.011719 -20.898438 30.066406 -21.117188 30.121094 -21.171875 C 30.449219 -21.445312 30.121094 -21.71875 30.066406 -22.046875 C 29.957031 -22.425781 30.121094 -22.699219 30.230469 -22.972656 L 30.449219 -23.519531 C 30.449219 -23.628906 30.449219 -23.738281 30.394531 -23.847656 C 30.503906 -24.226562 30.285156 -24.5 30.066406 -24.609375 C 29.628906 -24.773438 29.300781 -24.828125 29.03125 -25.15625 C 28.921875 -25.210938 28.867188 -25.265625 28.8125 -25.265625 C 28.429688 -25.320312 28.210938 -25.210938 27.882812 -24.992188 C 27.882812 -24.9375 27.773438 -24.882812 27.664062 -24.9375 C 27.230469 -24.992188 26.847656 -24.664062 26.519531 -24.226562 C 26.082031 -23.898438 25.648438 -23.738281 25.320312 -23.410156 C 25.210938 -23.300781 25.101562 -23.191406 25.046875 -23.082031 C 24.882812 -23.082031 24.609375 -22.863281 24.664062 -22.535156 L 24.335938 -22.261719 C 24.28125 -22.152344 24.171875 -22.101562 24.117188 -22.152344 C 23.953125 -22.207031 23.738281 -21.9375 23.574219 -21.828125 C 23.464844 -21.773438 23.355469 -21.664062 23.191406 -21.609375 C 23.082031 -21.609375 22.972656 -21.609375 22.972656 -21.335938 L 22.863281 -21.117188 C 22.699219 -20.953125 22.589844 -20.679688 22.425781 -20.40625 L 22.425781 -20.300781 L 22.644531 -20.460938 C 23.191406 -21.171875 23.792969 -21.445312 24.335938 -21.992188 L 25.101562 -22.753906 L 25.59375 -22.972656 L 25.59375 -22.863281 C 23.628906 -21.171875 21.664062 -19.316406 19.699219 -17.296875 C 18.5 -15.988281 17.296875 -14.734375 16.042969 -13.421875 C 15.496094 -12.769531 14.898438 -12.167969 14.296875 -11.511719 C 14.1875 -11.1875 13.859375 -11.132812 13.804688 -10.859375 C 13.640625 -10.53125 13.367188 -10.3125 13.152344 -10.09375 C 12.878906 -9.929688 12.769531 -9.386719 12.332031 -9.441406 L 13.097656 -10.203125 L 12.988281 -10.257812 C 12.824219 -10.203125 12.769531 -10.09375 12.660156 -10.039062 C 12.386719 -9.820312 12.167969 -9.167969 11.894531 -9.222656 C 11.132812 -9.222656 10.640625 -9.222656 9.875 -9.167969 C 8.566406 -9.058594 7.257812 -9.167969 5.839844 -9.003906 C 5.675781 -9.003906 5.347656 -8.839844 5.128906 -8.675781 C 4.691406 -8.183594 5.292969 -6.929688 5.566406 -6.820312 C 5.894531 -6.765625 6.167969 -6.875 6.4375 -6.765625 C 7.09375 -6.820312 7.640625 -6.929688 8.347656 -6.929688 L 9.605469 -6.929688 C 9.765625 -6.984375 10.203125 -6.929688 10.421875 -6.929688 C 10.257812 -6.65625 9.765625 -5.839844 9.714844 -5.566406 C 9.875 -5.730469 9.929688 -5.894531 10.148438 -6.058594 L 9.875 -5.566406 C 9.660156 -5.238281 9.441406 -5.074219 9.277344 -4.800781 L 7.859375 -2.566406 C 7.640625 -2.238281 7.421875 -1.910156 7.3125 -1.636719 L 6.65625 -0.65625 L 6.65625 -0.710938 L 7.585938 -2.347656 C 7.53125 -2.347656 7.53125 -2.402344 7.53125 -2.402344 C 7.039062 -1.636719 6.65625 -0.925781 6.113281 -0.0546875 L 6.328125 -0.109375 C 6.382812 -0.0546875 6.382812 0 6.4375 0 C 6.113281 0.0546875 6.058594 0.21875 5.949219 0.546875 C 6.003906 0.546875 5.949219 0.601562 5.949219 0.65625 C 5.949219 0.710938 5.949219 0.820312 5.894531 0.875 L 5.894531 0.765625 L 5.675781 0.765625 L 5.511719 1.199219 C 5.347656 1.800781 5.019531 2.347656 4.691406 2.890625 C 4.691406 3 4.527344 3.054688 4.527344 3.164062 C 4.367188 3.492188 4.257812 3.984375 4.09375 4.367188 L 3.546875 6.003906 C 3.601562 5.675781 3.710938 5.292969 3.710938 4.855469 C 3.984375 4.203125 4.257812 3.4375 4.636719 2.835938 C 4.527344 2.78125 4.472656 2.78125 4.472656 2.78125 C 4.367188 3.109375 4.148438 3.492188 3.929688 3.875 C 3.492188 5.183594 3.109375 6.4375 2.835938 7.914062 C 2.671875 9.167969 2.621094 10.203125 2.945312 11.40625 C 3 11.460938 3.109375 11.511719 3.21875 11.566406 C 3.21875 11.460938 3.273438 11.351562 3.273438 11.1875 C 3.328125 11.078125 3.273438 10.859375 3.328125 10.640625 L 3.492188 9.820312 L 3.710938 8.621094 C 3.710938 8.292969 3.601562 8.019531 3.765625 7.804688 C 3.984375 7.476562 4.039062 7.09375 4.09375 6.65625 C 4.203125 6.492188 4.367188 6.273438 4.527344 6.328125 C 4.582031 6.328125 4.636719 6.273438 4.636719 6.273438 L 4.636719 6.21875 L 4.3125 6.21875 L 4.527344 6.003906 C 4.582031 5.949219 4.746094 5.949219 4.691406 5.894531 C 4.636719 5.839844 4.636719 5.730469 4.636719 5.675781 C 4.691406 5.675781 4.746094 5.675781 4.964844 5.566406 L 5.183594 4.800781 L 4.800781 4.910156 L 5.019531 4.691406 C 5.128906 4.421875 5.238281 4.257812 5.457031 3.929688 C 5.566406 3.765625 5.675781 3.4375 5.785156 3.328125 C 5.839844 3.054688 5.894531 2.78125 6.058594 2.457031 L 6.058594 2.347656 C 6.4375 2.183594 6.765625 2.128906 6.929688 1.582031 L 6.820312 1.253906 C 7.039062 1.363281 7.148438 1.308594 7.257812 1.089844 C 7.367188 0.925781 7.421875 0.765625 7.640625 0.601562 C 7.695312 0.546875 7.695312 0.382812 7.695312 0.21875 L 7.859375 -0.109375 C 7.859375 -0.109375 7.964844 -0.109375 7.964844 -0.164062 C 8.074219 -0.710938 8.074219 -0.710938 8.019531 -1.035156 L 8.183594 -1.035156 C 8.183594 -0.925781 8.238281 -0.875 8.238281 -0.875 C 8.347656 -0.65625 8.621094 -0.765625 8.785156 -0.980469 C 8.839844 -1.199219 9.003906 -1.472656 9.277344 -1.691406 C 9.386719 -1.855469 9.550781 -1.910156 9.550781 -2.183594 C 9.605469 -2.511719 9.714844 -2.726562 9.984375 -2.78125 C 10.039062 -2.78125 10.09375 -2.890625 10.148438 -2.945312 C 10.09375 -3.164062 10.257812 -3.164062 10.3125 -3.21875 C 10.640625 -3.492188 10.859375 -3.546875 10.859375 -4.039062 L 10.695312 -4.3125 C 10.75 -4.421875 10.804688 -4.472656 10.804688 -4.582031 C 10.859375 -4.964844 10.859375 -4.964844 11.132812 -4.855469 C 11.078125 -4.800781 10.96875 -4.636719 10.96875 -4.527344 C 10.96875 -4.421875 10.914062 -4.3125 10.914062 -4.203125 L 11.242188 -4.3125 C 11.675781 -4.855469 11.839844 -5.402344 12.332031 -6.058594 C 12.386719 -6.113281 12.386719 -6.167969 12.441406 -6.273438 C 13.097656 -6.929688 13.261719 -7.039062 13.3125 -7.203125 C 13.585938 -7.148438 13.804688 -7.257812 14.023438 -7.257812 C 14.351562 -7.257812 14.625 -7.3125 14.84375 -7.257812 L 16.207031 -7.203125 L 19.699219 -7.203125 L 21.773438 -7.148438 L 22.425781 -7.039062 C 22.699219 -7.039062 22.863281 -7.09375 22.917969 -7.148438 C 22.644531 -7.148438 22.425781 -7.203125 22.261719 -7.257812 L 21.773438 -7.3125 C 21.71875 -7.257812 21.609375 -7.367188 21.554688 -7.421875 L 22.644531 -7.3125 L 22.863281 -7.3125 L 23.082031 -7.148438 C 23.027344 -7.148438 22.972656 -7.09375 22.917969 -7.039062 L 23.246094 -6.929688 C 23.082031 -6.113281 22.480469 -4.257812 22.316406 -3.4375 C 22.152344 -2.457031 21.992188 -1.746094 21.828125 -0.710938 L 21.664062 0.4375 C 21.609375 1.308594 21.5 2.835938 21.828125 3.710938 C 22.371094 6.003906 23.410156 7.148438 25.808594 6.875 C 26.683594 6.820312 27.339844 6.273438 27.828125 5.511719 L 27.664062 5.347656 C 27.394531 5.785156 25.972656 6.113281 25.046875 5.183594 C 24.664062 4.855469 24.28125 4.257812 24.226562 3.710938 C 23.847656 2.671875 23.898438 1.636719 23.953125 0.710938 L 24.007812 -0.21875 C 24.0625 -0.601562 24.171875 -0.980469 24.28125 -1.417969 L 24.226562 -2.78125 C 24.226562 -2.835938 24.445312 -2.890625 24.554688 -3 L 24.664062 -3.492188 L 24.992188 -4.3125 C 24.992188 -4.691406 25.265625 -5.402344 25.210938 -5.785156 L 25.59375 -6.984375 L 27.445312 -6.820312 L 27.773438 -6.765625 L 27.828125 -7.039062 L 28.101562 -7.476562 L 28.101562 -7.695312 L 27.121094 -7.75 C 27.121094 -7.914062 27.011719 -8.019531 26.847656 -7.964844 C 26.628906 -7.914062 26.355469 -8.074219 26.027344 -8.019531 L 25.972656 -8.128906 C 26.082031 -8.238281 26.027344 -8.347656 26.082031 -8.347656 C 26.464844 -8.347656 26.847656 -8.238281 27.394531 -8.128906 C 27.609375 -8.128906 27.394531 -8.238281 27.554688 -8.238281 L 28.375 -7.859375 C 28.375 -7.695312 28.429688 -7.585938 28.8125 -7.476562 L 28.59375 -7.476562 L 28.539062 -7.421875 C 28.867188 -7.3125 29.085938 -7.148438 29.410156 -7.257812 C 29.574219 -7.3125 29.902344 -7.148438 29.957031 -7.257812 C 29.902344 -7.039062 29.847656 -6.984375 29.847656 -6.875 C 29.519531 -6.875 29.246094 -7.148438 28.976562 -6.929688 C 29.140625 -6.820312 29.410156 -6.710938 29.683594 -6.65625 C 29.464844 -6.492188 29.300781 -6.546875 29.140625 -6.546875 C 29.140625 -6.546875 29.03125 -6.546875 29.085938 -6.601562 C 28.976562 -6.65625 28.8125 -6.875 28.703125 -6.875 C 28.648438 -6.875 28.539062 -6.710938 28.484375 -6.546875 C 28.648438 -6.492188 28.976562 -6.382812 29.085938 -6.382812 C 29.246094 -6.328125 29.957031 -6.328125 30.121094 -6.21875 L 30.175781 -6.382812 C 30.230469 -6.382812 30.339844 -6.328125 30.285156 -6.273438 C 30.339844 -6.058594 30.394531 -6.058594 30.558594 -6.003906 L 31.539062 -5.730469 C 31.757812 -5.621094 31.976562 -5.730469 31.921875 -5.839844 Z M 24.445312 -9.003906 C 24.390625 -9.003906 24.335938 -9.003906 24.226562 -9.058594 L 24.390625 -9.386719 L 24.554688 -10.367188 C 24.554688 -10.421875 24.5 -10.476562 24.5 -10.476562 L 24.335938 -10.476562 L 23.898438 -8.894531 L 22.316406 -9.003906 C 21.71875 -9.058594 21.335938 -9.058594 20.898438 -9.113281 C 20.40625 -9.058594 19.917969 -9.113281 19.535156 -9.222656 C 19.097656 -9.167969 18.714844 -9.222656 18.28125 -9.167969 C 17.734375 -9.222656 17.1875 -9.167969 16.644531 -9.332031 C 16.261719 -9.277344 15.769531 -9.332031 15.222656 -9.277344 C 15.933594 -10.09375 16.589844 -10.859375 17.296875 -11.730469 L 17.789062 -12.441406 C 18.007812 -12.714844 18.226562 -12.988281 18.5 -13.152344 C 18.605469 -13.476562 18.769531 -13.53125 18.988281 -13.695312 C 19.261719 -14.078125 19.753906 -14.351562 20.027344 -14.734375 C 20.246094 -15.167969 20.515625 -15.386719 20.898438 -15.660156 C 21.0625 -15.769531 21.335938 -16.042969 21.445312 -16.207031 C 21.664062 -16.480469 21.9375 -16.699219 22.101562 -16.859375 C 22.425781 -17.351562 22.699219 -17.734375 23.082031 -18.007812 C 23.519531 -18.445312 23.898438 -18.714844 24.445312 -19.152344 C 24.71875 -19.480469 25.046875 -19.863281 25.429688 -20.191406 C 25.753906 -20.460938 26.082031 -20.789062 26.246094 -21.171875 C 26.574219 -21.445312 27.554688 -22.316406 27.773438 -22.644531 L 28.046875 -22.644531 C 27.882812 -22.046875 27.445312 -20.625 27.394531 -20.082031 C 27.066406 -19.480469 26.847656 -18.660156 26.628906 -18.007812 L 25.808594 -15.222656 L 25.375 -13.804688 L 25.15625 -13.042969 C 25.046875 -12.824219 24.992188 -12.605469 24.882812 -12.386719 C 24.71875 -11.839844 24.554688 -11.1875 24.390625 -10.695312 L 24.5 -10.585938 C 24.5 -10.585938 24.664062 -10.640625 24.664062 -10.695312 C 24.71875 -10.96875 24.882812 -11.242188 24.992188 -11.675781 C 25.101562 -12.003906 25.101562 -12.332031 25.210938 -12.605469 C 25.539062 -13.207031 25.648438 -13.859375 26.027344 -14.460938 L 26.027344 -14.734375 C 26.027344 -15.222656 26.246094 -15.386719 26.355469 -15.605469 C 26.464844 -15.769531 26.355469 -15.824219 26.410156 -15.933594 C 26.464844 -16.152344 26.683594 -16.371094 26.574219 -16.699219 C 26.628906 -16.804688 26.792969 -17.023438 26.792969 -17.132812 C 26.902344 -17.625 27.121094 -18.171875 27.285156 -18.714844 C 27.339844 -18.28125 24.882812 -9.714844 24.445312 -9.003906 Z M 22.046875 -19.917969 L 22.046875 -19.972656 C 21.882812 -19.917969 21.773438 -19.808594 21.664062 -19.699219 C 21.335938 -19.371094 20.898438 -19.042969 20.515625 -18.605469 C 20.679688 -18.554688 20.789062 -18.554688 20.789062 -18.554688 Z M 20.246094 -18.117188 C 20.351562 -18.28125 20.460938 -18.445312 20.515625 -18.605469 C 20.460938 -18.445312 20.246094 -18.390625 20.191406 -18.171875 C 20.191406 -18.171875 20.191406 -18.117188 20.246094 -18.117188 Z M 18.117188 -16.042969 C 18.824219 -16.589844 19.425781 -17.242188 20.027344 -17.898438 L 20.027344 -18.0625 L 18.0625 -16.097656 C 18.0625 -16.042969 18.0625 -16.042969 18.117188 -16.042969 Z M 21.390625 -17.296875 C 21.554688 -17.570312 21.664062 -17.734375 21.882812 -17.953125 C 21.773438 -17.570312 21.554688 -17.460938 21.390625 -17.242188 Z M 19.644531 -15.660156 L 19.699219 -15.660156 L 19.480469 -15.441406 C 19.207031 -15.007812 18.878906 -14.679688 18.5 -14.351562 C 18.445312 -14.296875 18.390625 -14.242188 18.335938 -14.242188 C 18.769531 -14.789062 19.207031 -15.332031 19.644531 -15.660156 Z M 16.535156 -14.460938 C 16.371094 -14.296875 16.261719 -14.132812 16.152344 -13.96875 L 16.152344 -13.914062 L 16.589844 -14.351562 C 16.589844 -14.40625 16.535156 -14.40625 16.535156 -14.460938 Z M 18.171875 -14.078125 L 17.84375 -13.640625 C 17.625 -13.421875 17.351562 -13.042969 17.078125 -12.824219 C 17.460938 -13.421875 17.789062 -13.75 18.171875 -14.078125 Z M 15.332031 -12.933594 C 15.332031 -12.933594 15.332031 -12.878906 15.386719 -12.933594 C 15.441406 -13.097656 15.660156 -13.261719 16.042969 -13.421875 L 15.769531 -13.476562 C 15.605469 -13.3125 15.496094 -13.152344 15.332031 -12.933594 Z M 15.496094 -11.132812 C 15.769531 -11.460938 16.097656 -11.839844 16.480469 -12.113281 C 16.261719 -11.785156 16.152344 -11.460938 15.988281 -11.078125 L 15.988281 -11.242188 C 15.878906 -11.1875 15.769531 -11.132812 15.496094 -11.078125 Z M 14.242188 -9.550781 C 14.515625 -10.09375 14.789062 -10.367188 15.113281 -10.75 C 15.277344 -10.914062 15.386719 -10.96875 15.550781 -11.023438 L 15.660156 -10.914062 C 15.605469 -10.859375 15.550781 -10.804688 15.550781 -10.75 C 15.113281 -10.367188 14.789062 -10.148438 14.515625 -9.765625 C 14.460938 -9.714844 14.296875 -9.441406 14.242188 -9.550781 Z M 21.71875 -8.730469 C 20.570312 -8.785156 19.480469 -8.839844 18.390625 -8.839844 L 15.332031 -9.003906 C 15.332031 -9.003906 15.386719 -9.058594 15.386719 -9.113281 C 18.226562 -8.894531 21.0625 -9.003906 23.792969 -8.621094 C 23.082031 -8.675781 22.371094 -8.675781 21.71875 -8.730469 Z M 11.730469 -8.675781 C 11.460938 -8.621094 11.242188 -8.675781 10.96875 -8.566406 C 9.277344 -8.457031 8.785156 -8.566406 8.566406 -8.730469 C 8.730469 -8.675781 9.113281 -8.675781 9.820312 -8.675781 L 10.96875 -8.785156 C 11.132812 -8.894531 11.1875 -8.785156 11.40625 -8.894531 C 11.511719 -8.730469 11.730469 -8.894531 11.949219 -8.839844 C 11.949219 -8.839844 12.003906 -8.785156 12.058594 -8.785156 C 11.949219 -8.730469 11.894531 -8.621094 11.730469 -8.675781 Z M 14.84375 -8.894531 C 16.261719 -8.839844 17.679688 -8.730469 19.152344 -8.675781 L 19.042969 -8.566406 L 17.296875 -8.675781 C 16.699219 -8.621094 16.371094 -8.566406 16.097656 -8.621094 C 15.660156 -8.730469 15.222656 -8.730469 14.84375 -8.894531 Z M 20.460938 -8.402344 C 20.191406 -8.402344 19.972656 -8.457031 19.699219 -8.347656 C 17.898438 -8.292969 16.535156 -8.511719 17.625 -8.511719 C 17.789062 -8.511719 18.117188 -8.457031 18.335938 -8.457031 L 19.699219 -8.457031 C 19.863281 -8.566406 19.917969 -8.457031 20.136719 -8.566406 C 20.246094 -8.402344 20.460938 -8.621094 20.679688 -8.566406 C 20.679688 -8.566406 20.734375 -8.511719 20.789062 -8.511719 C 20.679688 -8.457031 20.625 -8.347656 20.460938 -8.402344 Z M 23.519531 -8.402344 C 23.246094 -8.402344 22.863281 -8.511719 22.480469 -8.511719 C 22.480469 -8.566406 22.261719 -8.511719 22.207031 -8.511719 C 22.046875 -8.457031 20.953125 -8.402344 20.789062 -8.402344 L 21.007812 -8.566406 L 23.738281 -8.566406 C 23.792969 -8.511719 23.792969 -8.511719 23.792969 -8.457031 C 23.683594 -8.402344 23.628906 -8.347656 23.519531 -8.402344 Z M 14.570312 -8.238281 C 14.734375 -8.457031 14.898438 -8.457031 14.953125 -8.128906 C 14.789062 -8.128906 14.734375 -8.183594 14.570312 -8.238281 Z M 16.152344 -8.183594 L 16.152344 -8.238281 C 16.316406 -8.238281 16.371094 -8.183594 16.480469 -8.183594 L 16.480469 -8.074219 C 16.371094 -8.128906 16.261719 -8.128906 16.152344 -8.183594 Z M 23.191406 -7.804688 L 23.027344 -7.3125 C 22.808594 -7.421875 22.808594 -7.53125 22.972656 -7.75 C 22.917969 -7.804688 22.808594 -7.804688 22.753906 -7.859375 L 22.699219 -7.914062 C 22.863281 -7.964844 22.917969 -8.074219 23.082031 -8.183594 C 23.355469 -8.292969 23.464844 -7.75 23.355469 -7.367188 C 23.300781 -7.367188 23.300781 -7.804688 23.191406 -7.804688 Z M 16.042969 -7.914062 L 16.097656 -7.964844 C 16.097656 -7.914062 16.042969 -7.914062 16.042969 -7.914062 Z M 28.8125 -7.695312 L 28.484375 -7.804688 L 28.539062 -7.914062 C 28.539062 -7.914062 28.648438 -7.804688 28.8125 -7.75 C 28.8125 -7.695312 28.867188 -7.75 28.8125 -7.695312 Z M 23.898438 -7.148438 C 23.683594 -7.367188 23.847656 -7.53125 23.953125 -7.75 C 23.953125 -7.53125 24.117188 -7.367188 23.898438 -7.148438 Z M 30.011719 -7.421875 C 29.574219 -7.476562 29.355469 -7.640625 29.085938 -7.640625 L 29.085938 -7.75 C 29.410156 -7.75 29.792969 -7.585938 30.121094 -7.476562 C 30.121094 -7.421875 30.011719 -7.476562 30.011719 -7.421875 Z M 16.261719 -7.53125 L 17.132812 -7.53125 C 16.804688 -7.257812 16.699219 -7.257812 16.261719 -7.53125 Z M 28.976562 -7.09375 C 28.867188 -7.148438 28.15625 -7.367188 28.101562 -7.421875 L 27.9375 -6.710938 L 28.375 -6.601562 C 28.429688 -6.875 28.921875 -7.09375 28.976562 -7.09375 Z M 11.730469 -6.328125 C 11.566406 -6.21875 11.460938 -6.058594 11.296875 -5.839844 C 11.023438 -5.511719 10.75 -5.128906 10.640625 -4.800781 C 10.585938 -4.855469 10.53125 -4.855469 10.53125 -4.910156 C 10.53125 -5.019531 10.585938 -5.128906 10.640625 -5.238281 C 10.859375 -5.621094 11.1875 -6.382812 11.40625 -6.765625 C 11.675781 -6.984375 11.675781 -6.984375 11.894531 -6.875 C 11.839844 -6.820312 11.785156 -6.820312 11.730469 -6.328125 Z M 11.023438 -6.875 C 11.023438 -6.601562 10.640625 -5.621094 10.367188 -5.511719 C 10.585938 -5.785156 10.75 -6.546875 11.023438 -6.875 Z M 22.808594 -2.890625 C 22.699219 -2.457031 22.535156 -1.910156 22.425781 -1.636719 C 22.371094 -1.472656 22.425781 -1.253906 22.425781 -1.089844 C 22.371094 -0.875 22.316406 -0.765625 22.152344 -0.875 C 22.152344 -1.035156 22.207031 -1.199219 22.207031 -1.417969 L 22.425781 -2.671875 C 22.480469 -2.945312 22.535156 -3.164062 22.644531 -3.382812 C 22.699219 -3.546875 22.644531 -3.710938 22.753906 -3.820312 C 22.863281 -4.039062 22.863281 -4.148438 22.917969 -4.472656 C 22.808594 -4.582031 22.917969 -4.746094 22.917969 -4.855469 C 23.082031 -5.292969 23.246094 -5.730469 23.300781 -6.167969 C 23.464844 -6.382812 23.574219 -6.382812 23.683594 -6.4375 C 23.464844 -5.566406 23.519531 -4.910156 23.136719 -4.203125 C 22.972656 -3.765625 22.917969 -3.328125 22.808594 -2.890625 Z M 24.773438 -5.238281 L 24.71875 -5.238281 C 24.71875 -5.566406 24.828125 -5.949219 24.9375 -6.21875 L 24.992188 -6.21875 C 24.882812 -5.894531 24.828125 -5.511719 24.773438 -5.238281 Z M 8.785156 -4.257812 C 8.949219 -4.472656 9.222656 -4.800781 9.386719 -5.074219 L 9.714844 -5.566406 C 9.277344 -5.238281 9.003906 -4.746094 8.785156 -4.257812 Z M 10.203125 -5.183594 C 9.929688 -4.636719 9.550781 -4.257812 9.113281 -3.710938 C 9.222656 -4.09375 9.929688 -5.128906 10.203125 -5.183594 Z M 9.714844 -3.601562 C 9.605469 -3.382812 9.332031 -3.054688 9.113281 -2.78125 C 9.058594 -2.671875 9.003906 -2.621094 8.949219 -2.566406 C 8.785156 -2.347656 8.675781 -2.074219 8.457031 -1.855469 C 8.347656 -2.074219 8.402344 -2.128906 8.402344 -2.183594 L 8.785156 -2.511719 L 8.785156 -2.566406 C 8.730469 -2.566406 8.730469 -2.621094 8.675781 -2.621094 C 9.332031 -3.164062 9.714844 -3.765625 10.203125 -4.582031 C 10.148438 -4.636719 10.148438 -4.636719 10.148438 -4.691406 C 10.257812 -4.691406 10.367188 -4.691406 10.53125 -4.746094 C 10.203125 -4.421875 9.984375 -3.929688 9.714844 -3.601562 Z M 24.335938 -3.601562 L 24.28125 -3.601562 C 24.335938 -3.929688 24.445312 -4.09375 24.5 -4.203125 C 24.445312 -4.09375 24.390625 -3.820312 24.335938 -3.601562 Z M 7.75 -1.582031 L 7.695312 -1.691406 L 7.695312 -1.472656 C 7.53125 -1.308594 7.367188 -1.144531 7.257812 -0.875 L 6.929688 -0.328125 C 7.148438 -0.820312 7.3125 -1.144531 7.585938 -1.472656 C 7.640625 -1.527344 7.695312 -1.636719 7.695312 -1.691406 L 7.75 -1.855469 C 8.074219 -2.457031 8.402344 -2.945312 8.785156 -3.382812 L 8.949219 -3.492188 L 8.949219 -3.4375 C 8.894531 -3.382812 8.730469 -3.273438 8.675781 -3.109375 C 8.292969 -2.671875 8.074219 -2.183594 7.75 -1.582031 Z M 9.660156 -2.945312 C 9.875 -3.382812 9.929688 -3.4375 10.203125 -3.328125 Z M 9.332031 -2.019531 C 9.332031 -2.019531 9.222656 -2.128906 9.113281 -2.128906 C 9.222656 -2.347656 9.277344 -2.457031 9.386719 -2.566406 L 9.441406 -2.566406 C 9.441406 -2.402344 9.386719 -2.238281 9.332031 -2.019531 Z M 7.914062 -0.925781 C 7.859375 -1.308594 8.074219 -1.691406 8.457031 -1.691406 C 8.183594 -1.472656 8.074219 -1.199219 7.914062 -0.925781 Z M 8.238281 -1.199219 L 8.238281 -1.253906 C 8.347656 -1.199219 8.566406 -1.199219 8.621094 -1.199219 C 8.621094 -1.144531 8.621094 -1.089844 8.675781 -1.035156 Z M 23.519531 -0.4375 C 23.574219 -0.601562 23.464844 -0.710938 23.464844 -0.765625 L 23.738281 -1.253906 C 23.738281 -1.253906 23.738281 -1.199219 23.792969 -1.199219 C 23.738281 -0.980469 23.683594 -0.710938 23.519531 -0.4375 Z M 7.257812 0.273438 C 7.148438 0.4375 7.039062 0.546875 6.929688 0.492188 C 7.148438 0.21875 7.367188 -0.164062 7.53125 -0.65625 L 7.695312 -0.65625 Z M 22.207031 0.710938 L 22.046875 0.710938 C 22.046875 0.601562 22.046875 -0.4375 22.101562 -0.65625 C 22.152344 -0.601562 22.101562 -0.546875 22.207031 -0.4375 Z M 5.894531 1.964844 C 5.238281 3.328125 4.421875 4.582031 3.929688 6.167969 C 3.765625 6.929688 3.546875 7.695312 3.21875 8.402344 C 3.273438 8.183594 3.328125 7.914062 3.382812 7.804688 C 3.65625 7.039062 3.820312 6.21875 4.09375 5.511719 C 4.257812 4.800781 4.636719 4.203125 4.800781 3.710938 C 5.183594 3.109375 5.457031 2.511719 5.785156 2.019531 C 6.003906 1.199219 6.382812 0.601562 6.875 -0.21875 C 6.492188 0.546875 6.058594 1.199219 5.894531 1.964844 Z M 6.875 1.089844 C 6.710938 0.980469 6.65625 0.925781 6.65625 0.875 L 6.984375 0.601562 L 7.039062 0.601562 C 7.039062 0.765625 6.929688 0.925781 6.875 1.089844 Z M 6.984375 2.019531 C 7.203125 1.746094 7.3125 1.363281 7.476562 1.089844 C 7.257812 1.308594 7.09375 1.691406 6.984375 1.964844 C 6.929688 2.019531 6.984375 2.019531 6.984375 2.019531 Z M 3.164062 7.148438 C 3.21875 6.820312 3.328125 6.546875 3.382812 6.328125 L 3.382812 6.765625 C 3.273438 6.929688 3.21875 7.09375 3.21875 7.203125 C 3.21875 7.203125 3.164062 7.203125 3.164062 7.148438 Z M 3.164062 7.148438" transform="translate(171.509 52.263)"/></g></g></g><g><g><g><path d="M 37.871094 -21.445312 C 37.761719 -22.425781 36.722656 -24.5 35.414062 -24.335938 C 35.304688 -24.335938 34.976562 -24.390625 34.8125 -24.335938 C 34.539062 -24.335938 35.085938 -23.027344 35.25 -22.480469 C 35.46875 -21.9375 35.632812 -21.28125 35.6875 -20.460938 C 35.6875 -18.878906 35.742188 -17.351562 35.523438 -15.878906 C 35.414062 -14.789062 35.359375 -13.914062 35.140625 -12.824219 C 34.921875 -10.421875 34.378906 -7.914062 33.613281 -5.511719 C 33.011719 -3.382812 32.195312 -1.308594 31.210938 0.65625 C 30.667969 1.855469 29.902344 2.835938 28.867188 3.710938 C 27.773438 4.636719 26.410156 5.347656 24.9375 5.621094 C 24.445312 5.785156 23.953125 5.839844 23.574219 5.839844 C 23.082031 5.839844 22.589844 5.621094 22.371094 5.347656 C 21.828125 4.472656 21.335938 3.710938 20.898438 2.835938 C 20.40625 1.691406 20.136719 0.328125 19.972656 -1.035156 C 19.863281 -2.074219 20.082031 -3.054688 20.082031 -4.148438 C 20.082031 -4.582031 19.972656 -5.128906 20.082031 -5.621094 C 20.460938 -8.019531 21.007812 -10.421875 22.261719 -12.550781 C 22.371094 -12.714844 22.480469 -12.933594 22.480469 -13.207031 C 22.480469 -13.421875 22.425781 -13.75 22.371094 -13.96875 C 22.261719 -14.296875 22.046875 -14.460938 21.5 -14.515625 C 20.734375 -14.570312 19.972656 -14.296875 19.480469 -13.585938 C 18.933594 -12.824219 18.445312 -12.167969 17.898438 -11.566406 C 15.988281 -9.113281 14.078125 -6.710938 12.113281 -4.367188 C 10.75 -2.78125 9.441406 -1.089844 8.128906 0.382812 C 7.421875 1.253906 6.601562 1.910156 5.839844 2.671875 C 5.785156 2.835938 5.621094 3.054688 5.238281 2.890625 C 5.238281 2.074219 5.238281 1.308594 5.457031 0.492188 C 5.785156 -0.875 6.058594 -2.347656 6.4375 -3.765625 C 6.929688 -4.964844 7.203125 -6.167969 7.585938 -7.476562 L 9.875 -15.167969 C 10.09375 -16.261719 10.476562 -17.296875 10.695312 -18.390625 C 10.914062 -19.042969 10.695312 -19.425781 10.09375 -19.753906 C 9.929688 -19.808594 9.765625 -19.863281 9.714844 -20.027344 C 9.113281 -20.191406 8.511719 -20.027344 8.183594 -19.480469 C 7.964844 -19.042969 7.804688 -18.714844 7.75 -18.28125 C 6.4375 -13.96875 5.238281 -9.714844 4.039062 -5.402344 C 3.601562 -3.820312 3.109375 -2.347656 2.890625 -0.710938 C 2.671875 0.925781 2.671875 2.457031 2.835938 4.039062 C 2.835938 4.800781 3 5.566406 3.875 5.785156 C 3.875 5.785156 4.039062 5.839844 4.039062 5.949219 C 4.203125 6.21875 4.472656 6.382812 4.855469 6.382812 C 5.074219 6.382812 5.566406 6.328125 5.785156 6.167969 C 6.820312 5.621094 7.640625 4.855469 8.238281 3.875 C 8.566406 3.382812 8.949219 2.835938 9.332031 2.457031 C 10.203125 1.472656 10.96875 0.382812 11.675781 -0.710938 C 11.296875 -0.65625 11.078125 -0.4375 10.75 -0.21875 C 10.640625 0.0546875 10.367188 0.328125 10.203125 0.546875 C 9.875 0.925781 9.605469 1.253906 8.949219 1.144531 C 9.113281 0.925781 9.167969 0.710938 9.277344 0.546875 C 9.550781 0.273438 9.929688 0.0546875 10.09375 -0.273438 C 11.460938 -1.308594 11.785156 -1.308594 12.769531 -2.726562 C 12.878906 -2.835938 13.097656 -3 13.152344 -3.164062 C 13.75 -3.929688 14.40625 -4.746094 15.058594 -5.511719 C 15.660156 -6.4375 16.316406 -7.367188 17.023438 -8.292969 C 17.242188 -8.457031 17.515625 -10.09375 17.953125 -10.09375 C 17.953125 -9.875 17.953125 -9.714844 17.898438 -9.496094 C 17.734375 -8.949219 17.625 -8.074219 17.515625 -7.53125 C 17.460938 -6.328125 17.296875 -5.402344 17.351562 -4.203125 C 17.351562 -3.054688 17.40625 -2.019531 17.570312 -0.875 C 17.953125 0.980469 18.554688 2.835938 19.644531 4.421875 C 20.082031 4.964844 20.679688 5.347656 21.0625 5.785156 C 22.046875 6.765625 23.082031 7.3125 24.390625 7.367188 C 25.046875 7.421875 25.699219 7.53125 26.300781 7.53125 C 26.683594 7.53125 27.175781 7.421875 27.5 7.203125 C 28.320312 6.710938 28.976562 6.167969 29.683594 5.566406 C 29.847656 5.457031 30.011719 5.347656 30.230469 5.347656 C 31.046875 5.019531 31.59375 4.472656 32.195312 3.984375 C 32.632812 3.601562 32.957031 3.109375 33.339844 2.621094 C 33.449219 2.347656 33.230469 2.074219 32.792969 2.019531 C 32.738281 2.019531 32.738281 1.910156 32.632812 1.910156 C 32.957031 0.492188 33.339844 -0.0546875 34.214844 -1.035156 C 34.539062 -1.308594 34.703125 -1.636719 34.921875 -1.855469 C 35.140625 -2.183594 35.304688 -2.402344 35.085938 -2.671875 C 34.8125 -3.054688 34.976562 -3.4375 35.304688 -3.765625 C 35.359375 -4.039062 35.359375 -4.257812 35.085938 -4.421875 C 34.976562 -4.367188 34.921875 -4.367188 34.8125 -4.367188 C 34.703125 -3.65625 34.214844 -3.21875 33.996094 -2.621094 C 33.941406 -2.238281 33.722656 -1.800781 33.230469 -1.691406 C 33.613281 -2.78125 34.433594 -4.3125 34.976562 -5.292969 C 35.414062 -6.113281 35.632812 -6.65625 36.015625 -7.640625 C 36.886719 -10.257812 37.488281 -12.332031 37.761719 -14.898438 C 38.085938 -17.023438 38.085938 -20.460938 37.871094 -21.445312 Z M 36.449219 -16.535156 C 36.285156 -13.367188 35.6875 -10.257812 34.8125 -7.257812 C 34.8125 -7.148438 34.757812 -7.09375 34.703125 -6.984375 C 34.59375 -7.09375 34.59375 -7.148438 34.59375 -7.257812 C 34.921875 -9.277344 35.359375 -11.242188 35.6875 -13.3125 C 35.960938 -14.789062 36.125 -16.261719 36.125 -17.789062 C 36.015625 -19.152344 36.125 -20.460938 36.179688 -21.773438 C 36.667969 -21.226562 36.449219 -20.570312 36.449219 -20.082031 C 36.503906 -18.878906 36.449219 -17.679688 36.449219 -16.535156 Z M 4.472656 -2.621094 C 4.3125 -2.183594 4.3125 -1.691406 4.039062 -1.472656 L 4.039062 -0.382812 C 3.875 0.273438 3.820312 0.820312 3.710938 1.417969 C 3.65625 1.527344 3.65625 1.746094 3.601562 1.855469 C 3.492188 0.710938 3.492188 -0.382812 4.039062 -1.472656 C 4.09375 -2.074219 4.203125 -2.671875 4.257812 -3.21875 C 4.472656 -4.203125 4.800781 -5.128906 5.074219 -5.949219 C 5.183594 -6.328125 5.402344 -6.546875 5.457031 -6.875 L 5.457031 -6.929688 C 5.566406 -8.074219 5.949219 -9.113281 6.21875 -10.257812 C 6.4375 -11.242188 6.765625 -12.222656 7.203125 -13.207031 C 7.039062 -12.003906 6.929688 -10.804688 6.4375 -9.660156 C 6.21875 -8.894531 6.167969 -8.074219 5.839844 -7.257812 C 5.785156 -7.148438 5.621094 -6.984375 5.457031 -6.929688 C 5.566406 -6.113281 5.457031 -5.292969 5.019531 -4.527344 C 4.800781 -3.929688 4.691406 -3.164062 4.472656 -2.621094 Z M 18.007812 -4.964844 C 17.679688 -5.949219 17.953125 -6.929688 18.28125 -7.914062 C 18.554688 -7.257812 18.554688 -7.257812 18.007812 -4.964844 Z M 17.953125 -1.035156 C 17.734375 -2.074219 17.570312 -3.054688 17.84375 -4.203125 C 18.007812 -4.203125 18.007812 -4.148438 18.007812 -4.148438 C 18.117188 -3.054688 18.171875 -2.074219 18.171875 -1.089844 C 18.117188 -1.035156 18.007812 -1.035156 17.953125 -1.035156 Z M 7.421875 2.511719 C 7.421875 2.511719 7.3125 2.457031 7.3125 2.347656 C 7.421875 2.347656 7.585938 2.238281 7.75 2.183594 C 7.75 2.183594 7.75 2.238281 7.804688 2.347656 C 7.640625 2.457031 7.585938 2.457031 7.421875 2.511719 Z M 7.421875 2.511719" transform="translate(204.522 52.263)"/></g></g></g><g><g><g><path d="M 31.921875 -5.839844 C 31.757812 -6.21875 31.976562 -6.058594 31.8125 -6.21875 C 31.484375 -6.65625 31.15625 -6.929688 30.777344 -7.148438 C 30.285156 -7.53125 30.722656 -7.421875 29.957031 -7.695312 C 29.191406 -7.964844 28.59375 -8.183594 27.71875 -8.402344 L 26.082031 -8.730469 L 26.355469 -9.550781 C 26.464844 -9.660156 26.519531 -9.820312 26.574219 -9.984375 C 26.738281 -10.421875 26.792969 -10.804688 27.011719 -11.242188 C 27.066406 -11.460938 27.175781 -11.730469 27.175781 -12.058594 C 27.445312 -12.496094 27.609375 -12.988281 27.773438 -13.53125 L 27.992188 -14.023438 L 28.757812 -16.804688 C 28.8125 -17.132812 28.921875 -17.460938 29.085938 -17.734375 C 29.140625 -18.117188 29.300781 -18.5 29.464844 -18.988281 C 29.628906 -19.589844 29.792969 -20.027344 30.011719 -20.789062 C 30.011719 -20.898438 30.066406 -21.117188 30.121094 -21.171875 C 30.449219 -21.445312 30.121094 -21.71875 30.066406 -22.046875 C 29.957031 -22.425781 30.121094 -22.699219 30.230469 -22.972656 L 30.449219 -23.519531 C 30.449219 -23.628906 30.449219 -23.738281 30.394531 -23.847656 C 30.503906 -24.226562 30.285156 -24.5 30.066406 -24.609375 C 29.628906 -24.773438 29.300781 -24.828125 29.03125 -25.15625 C 28.921875 -25.210938 28.867188 -25.265625 28.8125 -25.265625 C 28.429688 -25.320312 28.210938 -25.210938 27.882812 -24.992188 C 27.882812 -24.9375 27.773438 -24.882812 27.664062 -24.9375 C 27.230469 -24.992188 26.847656 -24.664062 26.519531 -24.226562 C 26.082031 -23.898438 25.648438 -23.738281 25.320312 -23.410156 C 25.210938 -23.300781 25.101562 -23.191406 25.046875 -23.082031 C 24.882812 -23.082031 24.609375 -22.863281 24.664062 -22.535156 L 24.335938 -22.261719 C 24.28125 -22.152344 24.171875 -22.101562 24.117188 -22.152344 C 23.953125 -22.207031 23.738281 -21.9375 23.574219 -21.828125 C 23.464844 -21.773438 23.355469 -21.664062 23.191406 -21.609375 C 23.082031 -21.609375 22.972656 -21.609375 22.972656 -21.335938 L 22.863281 -21.117188 C 22.699219 -20.953125 22.589844 -20.679688 22.425781 -20.40625 L 22.425781 -20.300781 L 22.644531 -20.460938 C 23.191406 -21.171875 23.792969 -21.445312 24.335938 -21.992188 L 25.101562 -22.753906 L 25.59375 -22.972656 L 25.59375 -22.863281 C 23.628906 -21.171875 21.664062 -19.316406 19.699219 -17.296875 C 18.5 -15.988281 17.296875 -14.734375 16.042969 -13.421875 C 15.496094 -12.769531 14.898438 -12.167969 14.296875 -11.511719 C 14.1875 -11.1875 13.859375 -11.132812 13.804688 -10.859375 C 13.640625 -10.53125 13.367188 -10.3125 13.152344 -10.09375 C 12.878906 -9.929688 12.769531 -9.386719 12.332031 -9.441406 L 13.097656 -10.203125 L 12.988281 -10.257812 C 12.824219 -10.203125 12.769531 -10.09375 12.660156 -10.039062 C 12.386719 -9.820312 12.167969 -9.167969 11.894531 -9.222656 C 11.132812 -9.222656 10.640625 -9.222656 9.875 -9.167969 C 8.566406 -9.058594 7.257812 -9.167969 5.839844 -9.003906 C 5.675781 -9.003906 5.347656 -8.839844 5.128906 -8.675781 C 4.691406 -8.183594 5.292969 -6.929688 5.566406 -6.820312 C 5.894531 -6.765625 6.167969 -6.875 6.4375 -6.765625 C 7.09375 -6.820312 7.640625 -6.929688 8.347656 -6.929688 L 9.605469 -6.929688 C 9.765625 -6.984375 10.203125 -6.929688 10.421875 -6.929688 C 10.257812 -6.65625 9.765625 -5.839844 9.714844 -5.566406 C 9.875 -5.730469 9.929688 -5.894531 10.148438 -6.058594 L 9.875 -5.566406 C 9.660156 -5.238281 9.441406 -5.074219 9.277344 -4.800781 L 7.859375 -2.566406 C 7.640625 -2.238281 7.421875 -1.910156 7.3125 -1.636719 L 6.65625 -0.65625 L 6.65625 -0.710938 L 7.585938 -2.347656 C 7.53125 -2.347656 7.53125 -2.402344 7.53125 -2.402344 C 7.039062 -1.636719 6.65625 -0.925781 6.113281 -0.0546875 L 6.328125 -0.109375 C 6.382812 -0.0546875 6.382812 0 6.4375 0 C 6.113281 0.0546875 6.058594 0.21875 5.949219 0.546875 C 6.003906 0.546875 5.949219 0.601562 5.949219 0.65625 C 5.949219 0.710938 5.949219 0.820312 5.894531 0.875 L 5.894531 0.765625 L 5.675781 0.765625 L 5.511719 1.199219 C 5.347656 1.800781 5.019531 2.347656 4.691406 2.890625 C 4.691406 3 4.527344 3.054688 4.527344 3.164062 C 4.367188 3.492188 4.257812 3.984375 4.09375 4.367188 L 3.546875 6.003906 C 3.601562 5.675781 3.710938 5.292969 3.710938 4.855469 C 3.984375 4.203125 4.257812 3.4375 4.636719 2.835938 C 4.527344 2.78125 4.472656 2.78125 4.472656 2.78125 C 4.367188 3.109375 4.148438 3.492188 3.929688 3.875 C 3.492188 5.183594 3.109375 6.4375 2.835938 7.914062 C 2.671875 9.167969 2.621094 10.203125 2.945312 11.40625 C 3 11.460938 3.109375 11.511719 3.21875 11.566406 C 3.21875 11.460938 3.273438 11.351562 3.273438 11.1875 C 3.328125 11.078125 3.273438 10.859375 3.328125 10.640625 L 3.492188 9.820312 L 3.710938 8.621094 C 3.710938 8.292969 3.601562 8.019531 3.765625 7.804688 C 3.984375 7.476562 4.039062 7.09375 4.09375 6.65625 C 4.203125 6.492188 4.367188 6.273438 4.527344 6.328125 C 4.582031 6.328125 4.636719 6.273438 4.636719 6.273438 L 4.636719 6.21875 L 4.3125 6.21875 L 4.527344 6.003906 C 4.582031 5.949219 4.746094 5.949219 4.691406 5.894531 C 4.636719 5.839844 4.636719 5.730469 4.636719 5.675781 C 4.691406 5.675781 4.746094 5.675781 4.964844 5.566406 L 5.183594 4.800781 L 4.800781 4.910156 L 5.019531 4.691406 C 5.128906 4.421875 5.238281 4.257812 5.457031 3.929688 C 5.566406 3.765625 5.675781 3.4375 5.785156 3.328125 C 5.839844 3.054688 5.894531 2.78125 6.058594 2.457031 L 6.058594 2.347656 C 6.4375 2.183594 6.765625 2.128906 6.929688 1.582031 L 6.820312 1.253906 C 7.039062 1.363281 7.148438 1.308594 7.257812 1.089844 C 7.367188 0.925781 7.421875 0.765625 7.640625 0.601562 C 7.695312 0.546875 7.695312 0.382812 7.695312 0.21875 L 7.859375 -0.109375 C 7.859375 -0.109375 7.964844 -0.109375 7.964844 -0.164062 C 8.074219 -0.710938 8.074219 -0.710938 8.019531 -1.035156 L 8.183594 -1.035156 C 8.183594 -0.925781 8.238281 -0.875 8.238281 -0.875 C 8.347656 -0.65625 8.621094 -0.765625 8.785156 -0.980469 C 8.839844 -1.199219 9.003906 -1.472656 9.277344 -1.691406 C 9.386719 -1.855469 9.550781 -1.910156 9.550781 -2.183594 C 9.605469 -2.511719 9.714844 -2.726562 9.984375 -2.78125 C 10.039062 -2.78125 10.09375 -2.890625 10.148438 -2.945312 C 10.09375 -3.164062 10.257812 -3.164062 10.3125 -3.21875 C 10.640625 -3.492188 10.859375 -3.546875 10.859375 -4.039062 L 10.695312 -4.3125 C 10.75 -4.421875 10.804688 -4.472656 10.804688 -4.582031 C 10.859375 -4.964844 10.859375 -4.964844 11.132812 -4.855469 C 11.078125 -4.800781 10.96875 -4.636719 10.96875 -4.527344 C 10.96875 -4.421875 10.914062 -4.3125 10.914062 -4.203125 L 11.242188 -4.3125 C 11.675781 -4.855469 11.839844 -5.402344 12.332031 -6.058594 C 12.386719 -6.113281 12.386719 -6.167969 12.441406 -6.273438 C 13.097656 -6.929688 13.261719 -7.039062 13.3125 -7.203125 C 13.585938 -7.148438 13.804688 -7.257812 14.023438 -7.257812 C 14.351562 -7.257812 14.625 -7.3125 14.84375 -7.257812 L 16.207031 -7.203125 L 19.699219 -7.203125 L 21.773438 -7.148438 L 22.425781 -7.039062 C 22.699219 -7.039062 22.863281 -7.09375 22.917969 -7.148438 C 22.644531 -7.148438 22.425781 -7.203125 22.261719 -7.257812 L 21.773438 -7.3125 C 21.71875 -7.257812 21.609375 -7.367188 21.554688 -7.421875 L 22.644531 -7.3125 L 22.863281 -7.3125 L 23.082031 -7.148438 C 23.027344 -7.148438 22.972656 -7.09375 22.917969 -7.039062 L 23.246094 -6.929688 C 23.082031 -6.113281 22.480469 -4.257812 22.316406 -3.4375 C 22.152344 -2.457031 21.992188 -1.746094 21.828125 -0.710938 L 21.664062 0.4375 C 21.609375 1.308594 21.5 2.835938 21.828125 3.710938 C 22.371094 6.003906 23.410156 7.148438 25.808594 6.875 C 26.683594 6.820312 27.339844 6.273438 27.828125 5.511719 L 27.664062 5.347656 C 27.394531 5.785156 25.972656 6.113281 25.046875 5.183594 C 24.664062 4.855469 24.28125 4.257812 24.226562 3.710938 C 23.847656 2.671875 23.898438 1.636719 23.953125 0.710938 L 24.007812 -0.21875 C 24.0625 -0.601562 24.171875 -0.980469 24.28125 -1.417969 L 24.226562 -2.78125 C 24.226562 -2.835938 24.445312 -2.890625 24.554688 -3 L 24.664062 -3.492188 L 24.992188 -4.3125 C 24.992188 -4.691406 25.265625 -5.402344 25.210938 -5.785156 L 25.59375 -6.984375 L 27.445312 -6.820312 L 27.773438 -6.765625 L 27.828125 -7.039062 L 28.101562 -7.476562 L 28.101562 -7.695312 L 27.121094 -7.75 C 27.121094 -7.914062 27.011719 -8.019531 26.847656 -7.964844 C 26.628906 -7.914062 26.355469 -8.074219 26.027344 -8.019531 L 25.972656 -8.128906 C 26.082031 -8.238281 26.027344 -8.347656 26.082031 -8.347656 C 26.464844 -8.347656 26.847656 -8.238281 27.394531 -8.128906 C 27.609375 -8.128906 27.394531 -8.238281 27.554688 -8.238281 L 28.375 -7.859375 C 28.375 -7.695312 28.429688 -7.585938 28.8125 -7.476562 L 28.59375 -7.476562 L 28.539062 -7.421875 C 28.867188 -7.3125 29.085938 -7.148438 29.410156 -7.257812 C 29.574219 -7.3125 29.902344 -7.148438 29.957031 -7.257812 C 29.902344 -7.039062 29.847656 -6.984375 29.847656 -6.875 C 29.519531 -6.875 29.246094 -7.148438 28.976562 -6.929688 C 29.140625 -6.820312 29.410156 -6.710938 29.683594 -6.65625 C 29.464844 -6.492188 29.300781 -6.546875 29.140625 -6.546875 C 29.140625 -6.546875 29.03125 -6.546875 29.085938 -6.601562 C 28.976562 -6.65625 28.8125 -6.875 28.703125 -6.875 C 28.648438 -6.875 28.539062 -6.710938 28.484375 -6.546875 C 28.648438 -6.492188 28.976562 -6.382812 29.085938 -6.382812 C 29.246094 -6.328125 29.957031 -6.328125 30.121094 -6.21875 L 30.175781 -6.382812 C 30.230469 -6.382812 30.339844 -6.328125 30.285156 -6.273438 C 30.339844 -6.058594 30.394531 -6.058594 30.558594 -6.003906 L 31.539062 -5.730469 C 31.757812 -5.621094 31.976562 -5.730469 31.921875 -5.839844 Z M 24.445312 -9.003906 C 24.390625 -9.003906 24.335938 -9.003906 24.226562 -9.058594 L 24.390625 -9.386719 L 24.554688 -10.367188 C 24.554688 -10.421875 24.5 -10.476562 24.5 -10.476562 L 24.335938 -10.476562 L 23.898438 -8.894531 L 22.316406 -9.003906 C 21.71875 -9.058594 21.335938 -9.058594 20.898438 -9.113281 C 20.40625 -9.058594 19.917969 -9.113281 19.535156 -9.222656 C 19.097656 -9.167969 18.714844 -9.222656 18.28125 -9.167969 C 17.734375 -9.222656 17.1875 -9.167969 16.644531 -9.332031 C 16.261719 -9.277344 15.769531 -9.332031 15.222656 -9.277344 C 15.933594 -10.09375 16.589844 -10.859375 17.296875 -11.730469 L 17.789062 -12.441406 C 18.007812 -12.714844 18.226562 -12.988281 18.5 -13.152344 C 18.605469 -13.476562 18.769531 -13.53125 18.988281 -13.695312 C 19.261719 -14.078125 19.753906 -14.351562 20.027344 -14.734375 C 20.246094 -15.167969 20.515625 -15.386719 20.898438 -15.660156 C 21.0625 -15.769531 21.335938 -16.042969 21.445312 -16.207031 C 21.664062 -16.480469 21.9375 -16.699219 22.101562 -16.859375 C 22.425781 -17.351562 22.699219 -17.734375 23.082031 -18.007812 C 23.519531 -18.445312 23.898438 -18.714844 24.445312 -19.152344 C 24.71875 -19.480469 25.046875 -19.863281 25.429688 -20.191406 C 25.753906 -20.460938 26.082031 -20.789062 26.246094 -21.171875 C 26.574219 -21.445312 27.554688 -22.316406 27.773438 -22.644531 L 28.046875 -22.644531 C 27.882812 -22.046875 27.445312 -20.625 27.394531 -20.082031 C 27.066406 -19.480469 26.847656 -18.660156 26.628906 -18.007812 L 25.808594 -15.222656 L 25.375 -13.804688 L 25.15625 -13.042969 C 25.046875 -12.824219 24.992188 -12.605469 24.882812 -12.386719 C 24.71875 -11.839844 24.554688 -11.1875 24.390625 -10.695312 L 24.5 -10.585938 C 24.5 -10.585938 24.664062 -10.640625 24.664062 -10.695312 C 24.71875 -10.96875 24.882812 -11.242188 24.992188 -11.675781 C 25.101562 -12.003906 25.101562 -12.332031 25.210938 -12.605469 C 25.539062 -13.207031 25.648438 -13.859375 26.027344 -14.460938 L 26.027344 -14.734375 C 26.027344 -15.222656 26.246094 -15.386719 26.355469 -15.605469 C 26.464844 -15.769531 26.355469 -15.824219 26.410156 -15.933594 C 26.464844 -16.152344 26.683594 -16.371094 26.574219 -16.699219 C 26.628906 -16.804688 26.792969 -17.023438 26.792969 -17.132812 C 26.902344 -17.625 27.121094 -18.171875 27.285156 -18.714844 C 27.339844 -18.28125 24.882812 -9.714844 24.445312 -9.003906 Z M 22.046875 -19.917969 L 22.046875 -19.972656 C 21.882812 -19.917969 21.773438 -19.808594 21.664062 -19.699219 C 21.335938 -19.371094 20.898438 -19.042969 20.515625 -18.605469 C 20.679688 -18.554688 20.789062 -18.554688 20.789062 -18.554688 Z M 20.246094 -18.117188 C 20.351562 -18.28125 20.460938 -18.445312 20.515625 -18.605469 C 20.460938 -18.445312 20.246094 -18.390625 20.191406 -18.171875 C 20.191406 -18.171875 20.191406 -18.117188 20.246094 -18.117188 Z M 18.117188 -16.042969 C 18.824219 -16.589844 19.425781 -17.242188 20.027344 -17.898438 L 20.027344 -18.0625 L 18.0625 -16.097656 C 18.0625 -16.042969 18.0625 -16.042969 18.117188 -16.042969 Z M 21.390625 -17.296875 C 21.554688 -17.570312 21.664062 -17.734375 21.882812 -17.953125 C 21.773438 -17.570312 21.554688 -17.460938 21.390625 -17.242188 Z M 19.644531 -15.660156 L 19.699219 -15.660156 L 19.480469 -15.441406 C 19.207031 -15.007812 18.878906 -14.679688 18.5 -14.351562 C 18.445312 -14.296875 18.390625 -14.242188 18.335938 -14.242188 C 18.769531 -14.789062 19.207031 -15.332031 19.644531 -15.660156 Z M 16.535156 -14.460938 C 16.371094 -14.296875 16.261719 -14.132812 16.152344 -13.96875 L 16.152344 -13.914062 L 16.589844 -14.351562 C 16.589844 -14.40625 16.535156 -14.40625 16.535156 -14.460938 Z M 18.171875 -14.078125 L 17.84375 -13.640625 C 17.625 -13.421875 17.351562 -13.042969 17.078125 -12.824219 C 17.460938 -13.421875 17.789062 -13.75 18.171875 -14.078125 Z M 15.332031 -12.933594 C 15.332031 -12.933594 15.332031 -12.878906 15.386719 -12.933594 C 15.441406 -13.097656 15.660156 -13.261719 16.042969 -13.421875 L 15.769531 -13.476562 C 15.605469 -13.3125 15.496094 -13.152344 15.332031 -12.933594 Z M 15.496094 -11.132812 C 15.769531 -11.460938 16.097656 -11.839844 16.480469 -12.113281 C 16.261719 -11.785156 16.152344 -11.460938 15.988281 -11.078125 L 15.988281 -11.242188 C 15.878906 -11.1875 15.769531 -11.132812 15.496094 -11.078125 Z M 14.242188 -9.550781 C 14.515625 -10.09375 14.789062 -10.367188 15.113281 -10.75 C 15.277344 -10.914062 15.386719 -10.96875 15.550781 -11.023438 L 15.660156 -10.914062 C 15.605469 -10.859375 15.550781 -10.804688 15.550781 -10.75 C 15.113281 -10.367188 14.789062 -10.148438 14.515625 -9.765625 C 14.460938 -9.714844 14.296875 -9.441406 14.242188 -9.550781 Z M 21.71875 -8.730469 C 20.570312 -8.785156 19.480469 -8.839844 18.390625 -8.839844 L 15.332031 -9.003906 C 15.332031 -9.003906 15.386719 -9.058594 15.386719 -9.113281 C 18.226562 -8.894531 21.0625 -9.003906 23.792969 -8.621094 C 23.082031 -8.675781 22.371094 -8.675781 21.71875 -8.730469 Z M 11.730469 -8.675781 C 11.460938 -8.621094 11.242188 -8.675781 10.96875 -8.566406 C 9.277344 -8.457031 8.785156 -8.566406 8.566406 -8.730469 C 8.730469 -8.675781 9.113281 -8.675781 9.820312 -8.675781 L 10.96875 -8.785156 C 11.132812 -8.894531 11.1875 -8.785156 11.40625 -8.894531 C 11.511719 -8.730469 11.730469 -8.894531 11.949219 -8.839844 C 11.949219 -8.839844 12.003906 -8.785156 12.058594 -8.785156 C 11.949219 -8.730469 11.894531 -8.621094 11.730469 -8.675781 Z M 14.84375 -8.894531 C 16.261719 -8.839844 17.679688 -8.730469 19.152344 -8.675781 L 19.042969 -8.566406 L 17.296875 -8.675781 C 16.699219 -8.621094 16.371094 -8.566406 16.097656 -8.621094 C 15.660156 -8.730469 15.222656 -8.730469 14.84375 -8.894531 Z M 20.460938 -8.402344 C 20.191406 -8.402344 19.972656 -8.457031 19.699219 -8.347656 C 17.898438 -8.292969 16.535156 -8.511719 17.625 -8.511719 C 17.789062 -8.511719 18.117188 -8.457031 18.335938 -8.457031 L 19.699219 -8.457031 C 19.863281 -8.566406 19.917969 -8.457031 20.136719 -8.566406 C 20.246094 -8.402344 20.460938 -8.621094 20.679688 -8.566406 C 20.679688 -8.566406 20.734375 -8.511719 20.789062 -8.511719 C 20.679688 -8.457031 20.625 -8.347656 20.460938 -8.402344 Z M 23.519531 -8.402344 C 23.246094 -8.402344 22.863281 -8.511719 22.480469 -8.511719 C 22.480469 -8.566406 22.261719 -8.511719 22.207031 -8.511719 C 22.046875 -8.457031 20.953125 -8.402344 20.789062 -8.402344 L 21.007812 -8.566406 L 23.738281 -8.566406 C 23.792969 -8.511719 23.792969 -8.511719 23.792969 -8.457031 C 23.683594 -8.402344 23.628906 -8.347656 23.519531 -8.402344 Z M 14.570312 -8.238281 C 14.734375 -8.457031 14.898438 -8.457031 14.953125 -8.128906 C 14.789062 -8.128906 14.734375 -8.183594 14.570312 -8.238281 Z M 16.152344 -8.183594 L 16.152344 -8.238281 C 16.316406 -8.238281 16.371094 -8.183594 16.480469 -8.183594 L 16.480469 -8.074219 C 16.371094 -8.128906 16.261719 -8.128906 16.152344 -8.183594 Z M 23.191406 -7.804688 L 23.027344 -7.3125 C 22.808594 -7.421875 22.808594 -7.53125 22.972656 -7.75 C 22.917969 -7.804688 22.808594 -7.804688 22.753906 -7.859375 L 22.699219 -7.914062 C 22.863281 -7.964844 22.917969 -8.074219 23.082031 -8.183594 C 23.355469 -8.292969 23.464844 -7.75 23.355469 -7.367188 C 23.300781 -7.367188 23.300781 -7.804688 23.191406 -7.804688 Z M 16.042969 -7.914062 L 16.097656 -7.964844 C 16.097656 -7.914062 16.042969 -7.914062 16.042969 -7.914062 Z M 28.8125 -7.695312 L 28.484375 -7.804688 L 28.539062 -7.914062 C 28.539062 -7.914062 28.648438 -7.804688 28.8125 -7.75 C 28.8125 -7.695312 28.867188 -7.75 28.8125 -7.695312 Z M 23.898438 -7.148438 C 23.683594 -7.367188 23.847656 -7.53125 23.953125 -7.75 C 23.953125 -7.53125 24.117188 -7.367188 23.898438 -7.148438 Z M 30.011719 -7.421875 C 29.574219 -7.476562 29.355469 -7.640625 29.085938 -7.640625 L 29.085938 -7.75 C 29.410156 -7.75 29.792969 -7.585938 30.121094 -7.476562 C 30.121094 -7.421875 30.011719 -7.476562 30.011719 -7.421875 Z M 16.261719 -7.53125 L 17.132812 -7.53125 C 16.804688 -7.257812 16.699219 -7.257812 16.261719 -7.53125 Z M 28.976562 -7.09375 C 28.867188 -7.148438 28.15625 -7.367188 28.101562 -7.421875 L 27.9375 -6.710938 L 28.375 -6.601562 C 28.429688 -6.875 28.921875 -7.09375 28.976562 -7.09375 Z M 11.730469 -6.328125 C 11.566406 -6.21875 11.460938 -6.058594 11.296875 -5.839844 C 11.023438 -5.511719 10.75 -5.128906 10.640625 -4.800781 C 10.585938 -4.855469 10.53125 -4.855469 10.53125 -4.910156 C 10.53125 -5.019531 10.585938 -5.128906 10.640625 -5.238281 C 10.859375 -5.621094 11.1875 -6.382812 11.40625 -6.765625 C 11.675781 -6.984375 11.675781 -6.984375 11.894531 -6.875 C 11.839844 -6.820312 11.785156 -6.820312 11.730469 -6.328125 Z M 11.023438 -6.875 C 11.023438 -6.601562 10.640625 -5.621094 10.367188 -5.511719 C 10.585938 -5.785156 10.75 -6.546875 11.023438 -6.875 Z M 22.808594 -2.890625 C 22.699219 -2.457031 22.535156 -1.910156 22.425781 -1.636719 C 22.371094 -1.472656 22.425781 -1.253906 22.425781 -1.089844 C 22.371094 -0.875 22.316406 -0.765625 22.152344 -0.875 C 22.152344 -1.035156 22.207031 -1.199219 22.207031 -1.417969 L 22.425781 -2.671875 C 22.480469 -2.945312 22.535156 -3.164062 22.644531 -3.382812 C 22.699219 -3.546875 22.644531 -3.710938 22.753906 -3.820312 C 22.863281 -4.039062 22.863281 -4.148438 22.917969 -4.472656 C 22.808594 -4.582031 22.917969 -4.746094 22.917969 -4.855469 C 23.082031 -5.292969 23.246094 -5.730469 23.300781 -6.167969 C 23.464844 -6.382812 23.574219 -6.382812 23.683594 -6.4375 C 23.464844 -5.566406 23.519531 -4.910156 23.136719 -4.203125 C 22.972656 -3.765625 22.917969 -3.328125 22.808594 -2.890625 Z M 24.773438 -5.238281 L 24.71875 -5.238281 C 24.71875 -5.566406 24.828125 -5.949219 24.9375 -6.21875 L 24.992188 -6.21875 C 24.882812 -5.894531 24.828125 -5.511719 24.773438 -5.238281 Z M 8.785156 -4.257812 C 8.949219 -4.472656 9.222656 -4.800781 9.386719 -5.074219 L 9.714844 -5.566406 C 9.277344 -5.238281 9.003906 -4.746094 8.785156 -4.257812 Z M 10.203125 -5.183594 C 9.929688 -4.636719 9.550781 -4.257812 9.113281 -3.710938 C 9.222656 -4.09375 9.929688 -5.128906 10.203125 -5.183594 Z M 9.714844 -3.601562 C 9.605469 -3.382812 9.332031 -3.054688 9.113281 -2.78125 C 9.058594 -2.671875 9.003906 -2.621094 8.949219 -2.566406 C 8.785156 -2.347656 8.675781 -2.074219 8.457031 -1.855469 C 8.347656 -2.074219 8.402344 -2.128906 8.402344 -2.183594 L 8.785156 -2.511719 L 8.785156 -2.566406 C 8.730469 -2.566406 8.730469 -2.621094 8.675781 -2.621094 C 9.332031 -3.164062 9.714844 -3.765625 10.203125 -4.582031 C 10.148438 -4.636719 10.148438 -4.636719 10.148438 -4.691406 C 10.257812 -4.691406 10.367188 -4.691406 10.53125 -4.746094 C 10.203125 -4.421875 9.984375 -3.929688 9.714844 -3.601562 Z M 24.335938 -3.601562 L 24.28125 -3.601562 C 24.335938 -3.929688 24.445312 -4.09375 24.5 -4.203125 C 24.445312 -4.09375 24.390625 -3.820312 24.335938 -3.601562 Z M 7.75 -1.582031 L 7.695312 -1.691406 L 7.695312 -1.472656 C 7.53125 -1.308594 7.367188 -1.144531 7.257812 -0.875 L 6.929688 -0.328125 C 7.148438 -0.820312 7.3125 -1.144531 7.585938 -1.472656 C 7.640625 -1.527344 7.695312 -1.636719 7.695312 -1.691406 L 7.75 -1.855469 C 8.074219 -2.457031 8.402344 -2.945312 8.785156 -3.382812 L 8.949219 -3.492188 L 8.949219 -3.4375 C 8.894531 -3.382812 8.730469 -3.273438 8.675781 -3.109375 C 8.292969 -2.671875 8.074219 -2.183594 7.75 -1.582031 Z M 9.660156 -2.945312 C 9.875 -3.382812 9.929688 -3.4375 10.203125 -3.328125 Z M 9.332031 -2.019531 C 9.332031 -2.019531 9.222656 -2.128906 9.113281 -2.128906 C 9.222656 -2.347656 9.277344 -2.457031 9.386719 -2.566406 L 9.441406 -2.566406 C 9.441406 -2.402344 9.386719 -2.238281 9.332031 -2.019531 Z M 7.914062 -0.925781 C 7.859375 -1.308594 8.074219 -1.691406 8.457031 -1.691406 C 8.183594 -1.472656 8.074219 -1.199219 7.914062 -0.925781 Z M 8.238281 -1.199219 L 8.238281 -1.253906 C 8.347656 -1.199219 8.566406 -1.199219 8.621094 -1.199219 C 8.621094 -1.144531 8.621094 -1.089844 8.675781 -1.035156 Z M 23.519531 -0.4375 C 23.574219 -0.601562 23.464844 -0.710938 23.464844 -0.765625 L 23.738281 -1.253906 C 23.738281 -1.253906 23.738281 -1.199219 23.792969 -1.199219 C 23.738281 -0.980469 23.683594 -0.710938 23.519531 -0.4375 Z M 7.257812 0.273438 C 7.148438 0.4375 7.039062 0.546875 6.929688 0.492188 C 7.148438 0.21875 7.367188 -0.164062 7.53125 -0.65625 L 7.695312 -0.65625 Z M 22.207031 0.710938 L 22.046875 0.710938 C 22.046875 0.601562 22.046875 -0.4375 22.101562 -0.65625 C 22.152344 -0.601562 22.101562 -0.546875 22.207031 -0.4375 Z M 5.894531 1.964844 C 5.238281 3.328125 4.421875 4.582031 3.929688 6.167969 C 3.765625 6.929688 3.546875 7.695312 3.21875 8.402344 C 3.273438 8.183594 3.328125 7.914062 3.382812 7.804688 C 3.65625 7.039062 3.820312 6.21875 4.09375 5.511719 C 4.257812 4.800781 4.636719 4.203125 4.800781 3.710938 C 5.183594 3.109375 5.457031 2.511719 5.785156 2.019531 C 6.003906 1.199219 6.382812 0.601562 6.875 -0.21875 C 6.492188 0.546875 6.058594 1.199219 5.894531 1.964844 Z M 6.875 1.089844 C 6.710938 0.980469 6.65625 0.925781 6.65625 0.875 L 6.984375 0.601562 L 7.039062 0.601562 C 7.039062 0.765625 6.929688 0.925781 6.875 1.089844 Z M 6.984375 2.019531 C 7.203125 1.746094 7.3125 1.363281 7.476562 1.089844 C 7.257812 1.308594 7.09375 1.691406 6.984375 1.964844 C 6.929688 2.019531 6.984375 2.019531 6.984375 2.019531 Z M 3.164062 7.148438 C 3.21875 6.820312 3.328125 6.546875 3.382812 6.328125 L 3.382812 6.765625 C 3.273438 6.929688 3.21875 7.09375 3.21875 7.203125 C 3.21875 7.203125 3.164062 7.203125 3.164062 7.148438 Z M 3.164062 7.148438" transform="translate(244.792 52.263)"/></g></g></g><g><g><g><path d="M 29.410156 -21.28125 C 29.03125 -21.335938 28.703125 -21.390625 28.375 -21.28125 C 27.773438 -21.0625 27.339844 -20.679688 27.066406 -20.027344 L 26.683594 -18.933594 C 26.355469 -17.953125 26.027344 -17.132812 25.375 -16.316406 C 25.15625 -15.988281 23.847656 -14.460938 23.464844 -14.023438 C 21.28125 -11.460938 18.878906 -9.222656 16.371094 -7.148438 L 14.898438 -6.21875 C 14.734375 -6.167969 14.570312 -6.167969 14.40625 -6.113281 C 14.242188 -6.21875 14.1875 -6.328125 14.1875 -6.382812 C 14.078125 -7.3125 14.132812 -9.496094 15.496094 -13.152344 C 15.605469 -13.421875 15.714844 -13.640625 15.769531 -13.96875 C 15.824219 -14.351562 15.933594 -14.84375 16.097656 -15.167969 C 16.535156 -16.535156 17.078125 -17.898438 17.515625 -19.316406 C 18.007812 -21.007812 17.953125 -22.316406 16.699219 -23.574219 C 16.042969 -24.117188 15.769531 -24.5 14.898438 -24.609375 C 13.640625 -24.609375 12.496094 -24.28125 11.460938 -23.738281 C 10.203125 -23.082031 9.113281 -22.152344 8.183594 -21.117188 C 7.53125 -20.351562 6.929688 -19.589844 6.328125 -18.660156 C 5.457031 -17.296875 4.691406 -15.824219 4.203125 -14.242188 C 4.09375 -13.96875 4.039062 -13.585938 4.039062 -13.261719 C 4.039062 -12.824219 4.3125 -12.550781 4.636719 -12.550781 C 4.910156 -12.496094 5.128906 -12.605469 5.347656 -12.933594 C 5.347656 -12.933594 5.347656 -12.988281 5.402344 -12.988281 C 5.457031 -13.53125 5.839844 -13.914062 6.113281 -14.242188 C 6.273438 -14.460938 6.4375 -14.679688 6.546875 -14.953125 C 6.984375 -15.769531 7.421875 -16.589844 7.964844 -17.40625 C 9.058594 -19.589844 10.804688 -21.28125 12.824219 -22.644531 C 13.261719 -22.917969 13.859375 -23.246094 14.515625 -23.246094 C 14.898438 -23.246094 15.167969 -23.082031 15.277344 -22.699219 C 15.386719 -22.589844 15.386719 -22.371094 15.441406 -22.101562 C 15.441406 -21.445312 15.441406 -20.898438 15.167969 -20.246094 L 14.515625 -18.335938 C 12.496094 -12.386719 11.730469 -8.621094 11.949219 -7.203125 C 12.003906 -6.4375 11.949219 -5.785156 12.714844 -5.183594 C 13.207031 -4.800781 13.914062 -4.746094 14.515625 -4.367188 C 15.113281 -4.09375 16.535156 -4.3125 17.078125 -4.855469 C 18.390625 -6.167969 19.644531 -7.421875 20.898438 -8.730469 C 21.007812 -8.785156 21.171875 -8.949219 21.226562 -9.167969 C 21.445312 -9.441406 24.390625 -12.878906 25.320312 -13.804688 C 25.265625 -13.476562 25.15625 -13.207031 25.101562 -12.878906 C 24.390625 -9.496094 23.683594 -6.113281 22.644531 -2.726562 C 22.425781 -2.238281 22.101562 -1.308594 21.828125 -0.710938 C 21.28125 0.546875 20.679688 1.691406 19.972656 2.726562 C 19.589844 3.273438 19.261719 3.710938 18.5 4.367188 C 17.953125 4.800781 17.515625 5.128906 16.914062 5.511719 C 14.953125 6.710938 13.640625 7.257812 12.222656 7.257812 C 11.511719 7.257812 10.75 7.257812 10.039062 7.203125 C 7.804688 6.984375 5.785156 6.113281 4.367188 4.3125 C 4.203125 4.09375 3.875 3.65625 3.601562 3.109375 C 3.382812 2.621094 3.109375 2.128906 2.945312 1.582031 C 2.78125 0.875 2.835938 0.21875 2.890625 -0.492188 C 2.945312 -0.925781 3.054688 -1.253906 3.109375 -1.472656 C 2.019531 -1.636719 1.691406 -1.308594 1.253906 0 C 0.925781 1.199219 1.199219 2.128906 1.746094 3.273438 C 2.292969 4.257812 3.273438 5.292969 4.039062 5.949219 C 5.238281 6.875 6.382812 7.75 7.53125 8.128906 C 10.039062 8.949219 12.003906 8.949219 14.242188 8.621094 C 15.714844 8.511719 17.84375 7.476562 19.152344 6.492188 C 20.351562 5.675781 21.226562 4.527344 22.152344 3.382812 C 22.480469 3.109375 22.644531 2.726562 22.808594 2.402344 C 23.246094 1.363281 23.574219 0.4375 24.171875 -0.492188 C 24.28125 -0.710938 24.445312 -0.925781 24.554688 -1.089844 C 24.664062 -1.363281 24.71875 -1.636719 24.828125 -1.800781 C 24.882812 -2.128906 24.9375 -2.402344 24.9375 -2.726562 C 24.992188 -3.601562 25.539062 -4.3125 25.375 -5.128906 C 25.375 -5.292969 25.539062 -5.675781 25.648438 -5.730469 C 26.082031 -6.003906 26.027344 -6.4375 25.972656 -6.710938 C 25.863281 -7.585938 26.027344 -8.402344 26.246094 -9.167969 C 26.246094 -9.167969 26.300781 -9.222656 26.355469 -9.222656 C 26.574219 -9.222656 26.628906 -9.167969 26.792969 -9.058594 C 27.011719 -9.875 27.339844 -10.640625 27.394531 -11.460938 C 27.609375 -12.222656 27.773438 -12.988281 28.046875 -13.859375 C 28.539062 -15.605469 28.976562 -17.515625 29.792969 -19.097656 C 30.066406 -19.535156 30.121094 -19.863281 30.121094 -20.246094 C 30.175781 -20.734375 30.011719 -21.117188 29.410156 -21.28125 Z M 25.699219 -10.585938 C 25.648438 -10.421875 25.59375 -10.039062 25.15625 -9.929688 C 25.539062 -12.058594 25.972656 -14.023438 26.847656 -16.207031 L 26.902344 -15.878906 C 26.519531 -14.132812 26.191406 -12.441406 25.699219 -10.585938 Z M 18.445312 -7.859375 C 18.824219 -8.511719 19.261719 -8.839844 19.808594 -9.277344 C 20.300781 -9.820312 20.679688 -10.257812 21.226562 -10.75 C 21.992188 -11.621094 22.808594 -12.605469 23.574219 -13.53125 C 23.953125 -13.96875 24.28125 -14.460938 24.664062 -14.84375 C 25.375 -15.714844 25.265625 -15.824219 25.699219 -15.988281 C 25.648438 -15.660156 25.648438 -15.550781 25.648438 -15.332031 C 25.648438 -15.277344 25.648438 -15.222656 25.59375 -15.167969 C 23.792969 -12.441406 19.644531 -8.511719 18.445312 -7.859375 Z M 25.15625 -8.074219 C 24.664062 -6.328125 24.226562 -4.472656 23.792969 -2.78125 C 23.574219 -1.964844 23.246094 -1.089844 22.863281 -0.328125 C 22.808594 -0.21875 22.753906 0 22.644531 0.109375 C 22.425781 0.925781 22.101562 1.636719 21.554688 2.402344 C 21.226562 2.835938 20.734375 3.328125 20.515625 3.875 C 20.351562 4.257812 20.027344 4.421875 19.753906 4.746094 C 19.535156 4.582031 19.535156 4.527344 19.425781 4.367188 L 20.84375 2.671875 C 21.28125 2.128906 21.5 1.363281 21.773438 0.765625 C 22.152344 0.0546875 22.425781 -0.710938 22.808594 -1.417969 C 22.917969 -1.636719 22.917969 -1.855469 22.917969 -2.019531 L 23.300781 -2.945312 C 23.847656 -4.800781 24.445312 -6.710938 24.828125 -8.675781 C 24.882812 -8.949219 24.828125 -9.386719 25.210938 -9.496094 C 25.265625 -9.386719 25.375 -9.277344 25.375 -9.222656 C 25.265625 -8.839844 25.265625 -8.457031 25.15625 -8.074219 Z M 25.15625 -8.074219" transform="translate(277.805 52.263)"/></g></g></g></svg>